<svg width="102" height="102" viewBox="0 0 102 102" fill="none" xmlns="http://www.w3.org/2000/svg">
<g clip-path="url(#clip0_138_659)">
<path d="M51 0.897858C23.3278 0.897858 0.889954 23.5332 0.889954 51.449C0.889954 79.3647 23.3203 102 51 102C78.6797 102 101.11 79.3723 101.11 51.449C101.11 23.5256 78.6721 0.897858 51 0.897858ZM51 77.744C36.602 77.744 24.9343 65.9736 24.9343 51.449C24.9343 36.9243 36.602 25.1539 51 25.1539C65.3979 25.1539 77.0656 36.9243 77.0656 51.449C77.0656 65.9736 65.3979 77.744 51 77.744Z" fill="white"/>
<path d="M51 2.47278C24.1877 2.47278 2.45123 24.4006 2.45123 51.4489C2.45123 78.4973 24.1877 100.425 51 100.425C77.8124 100.425 99.5488 78.4973 99.5488 51.4489C99.5488 24.4006 77.8124 2.47278 51 2.47278Z" stroke="url(#paint0_linear_138_659)" stroke-width="0.678801" stroke-miterlimit="10"/>
<path d="M51 29.3233C38.8873 29.3233 29.0674 39.2296 29.0674 51.4489C29.0674 63.6682 38.8873 73.5745 51 73.5745C63.1127 73.5745 72.9326 63.6682 72.9326 51.4489C72.9326 39.2296 63.1127 29.3233 51 29.3233Z" fill="white"/>
<path d="M32.7858 63.2193L37.3715 60.3052C39.1589 59.1715 41.233 58.5629 43.3448 58.5629H52.2521C53.5267 58.5629 54.56 59.6052 54.56 60.8911C54.56 62.1769 53.5267 63.2193 52.2521 63.2193H47.0329" stroke="#042C4C" stroke-width="1.0182" stroke-linecap="round" stroke-linejoin="round"/>
<path d="M32.7857 71.4213H39.7094C41.5723 71.4213 43.4352 71.1778 45.2378 70.6909L56.5661 67.6551C59.0248 67.0007 61.3403 65.9051 63.4219 64.4367L70.1344 59.6813C71.3261 58.8368 71.4769 57.1096 70.4436 56.0673C69.6517 55.2684 68.4073 55.1466 67.4796 55.7705L58.2027 62.0171" stroke="#042C4C" stroke-width="1.0182" stroke-linecap="round" stroke-linejoin="round"/>
<path d="M65.8581 56.8585C64.5156 55.6335 62.4642 55.6411 61.1292 56.8889L58.4216 59.4149" stroke="#042C4C" stroke-width="1.0182" stroke-linecap="round" stroke-linejoin="round"/>
<path d="M61.4083 56.6227L61.3781 56.5922C59.9828 55.314 57.8408 55.3749 56.521 56.7292L54.017 59.4074" stroke="#042C4C" stroke-width="1.0182" stroke-linecap="round" stroke-linejoin="round"/>
<path d="M51 4.47379C25.2813 4.47379 4.43481 25.5038 4.43481 51.4489C4.43481 77.394 25.2813 98.424 51 98.424C76.7188 98.424 97.5652 77.394 97.5652 51.4489C97.5652 25.5038 76.7188 4.47379 51 4.47379ZM51 75.8875C37.6203 75.8875 26.7747 64.9464 26.7747 51.4489C26.7747 37.9513 37.6203 27.0103 51 27.0103C64.3798 27.0103 75.2254 37.9513 75.2254 51.4489C75.2254 64.9464 64.3798 75.8875 51 75.8875Z" fill="url(#paint1_radial_138_659)" stroke="url(#paint2_linear_138_659)" stroke-width="0.678801" stroke-miterlimit="10"/>
<path d="M101.698 52.225L101.713 52.2098C102.121 23.6017 79.2604 0.289124 51 0.289124C22.7396 0.289124 -0.120667 23.6017 0.286609 52.2098L0.301693 52.225L20.5674 55.1162C22.7396 55.4282 24.6176 53.701 24.6176 51.4946V51.4489C24.6176 36.7492 36.4286 24.8343 51 24.8343C65.5714 24.8343 77.3824 36.7492 77.3824 51.4489V51.4946C77.3824 53.701 79.2604 55.4282 81.4326 55.1162L101.698 52.225Z" fill="url(#paint3_radial_138_659)" stroke="url(#paint4_linear_138_659)" stroke-width="0.5091" stroke-miterlimit="10"/>
<path d="M17.2781 43.6661C17.0513 44.5554 16.6311 45.1701 16.0176 45.5101C15.4054 45.8449 14.6446 45.8943 13.7353 45.6583C13.2833 45.5409 12.8993 45.3655 12.5834 45.132C12.2622 44.8972 12.0122 44.6247 11.8335 44.3146C11.6496 44.0032 11.5381 43.6601 11.4992 43.2853C11.4603 42.9105 11.4919 42.5232 11.5939 42.1233C11.6529 41.8918 11.725 41.6861 11.8101 41.5062C11.89 41.325 11.9717 41.1694 12.0552 41.0396C12.1335 40.9085 12.2084 40.8017 12.2799 40.7193C12.3513 40.6368 12.4056 40.578 12.4426 40.5427L13.3454 41.1557C13.2131 41.3009 13.0866 41.4785 12.9658 41.6884C12.8463 41.893 12.7504 42.1374 12.6779 42.4215C12.6296 42.6109 12.6135 42.8059 12.6296 43.0065C12.647 43.2018 12.7086 43.3888 12.8142 43.5678C12.916 43.74 13.0665 43.8969 13.2658 44.0384C13.4651 44.1799 13.7224 44.2916 14.0378 44.3735C14.2901 44.439 14.5333 44.474 14.7675 44.4787C14.9978 44.4768 15.2072 44.4358 15.3958 44.3557C15.5857 44.2703 15.7534 44.14 15.899 43.9646C16.0394 43.7878 16.1458 43.5574 16.2183 43.2732C16.2639 43.0943 16.2943 42.9311 16.3096 42.7836C16.3248 42.636 16.3333 42.5036 16.3352 42.3863C16.3319 42.2676 16.3225 42.1614 16.3072 42.0676C16.2919 41.9739 16.2772 41.8887 16.2631 41.8121L17.3352 41.7286C17.3961 41.9295 17.4283 42.1987 17.4318 42.5363C17.4354 42.8738 17.3842 43.2504 17.2781 43.6661Z" fill="white"/>
<path d="M20.4503 34.8415C20.2507 34.7994 20.0425 34.7618 19.8256 34.7288C19.6113 34.6909 19.397 34.6531 19.1828 34.6153L18.1327 36.5477C18.2796 36.7096 18.4252 36.8739 18.5694 37.0405C18.7163 37.2024 18.861 37.3569 19.0036 37.504L18.3736 38.6635C17.9424 38.1831 17.5465 37.7345 17.1858 37.3179C16.8251 36.9012 16.4879 36.5038 16.1743 36.1256C15.8633 35.7426 15.571 35.3762 15.2976 35.0265C15.022 34.6693 14.7585 34.3126 14.507 33.9564L15.0865 32.8899C15.5168 32.9169 15.9554 32.9515 16.4021 32.9938C16.8441 33.0334 17.3074 33.0849 17.7922 33.1482C18.2795 33.2067 18.7943 33.2773 19.3365 33.3599C19.8787 33.4426 20.4665 33.538 21.0998 33.6463L20.4503 34.8415ZM15.9023 34.0671C15.9606 34.1304 16.0386 34.22 16.1362 34.3361C16.2339 34.4521 16.3466 34.5858 16.4745 34.7372C16.6024 34.8886 16.743 35.0563 16.8963 35.2404C17.0523 35.4197 17.2164 35.6067 17.3888 35.8013L18.155 34.3913C17.8996 34.3494 17.6551 34.3103 17.4214 34.2742C17.1876 34.238 16.9718 34.2086 16.7739 34.1861C16.5787 34.1588 16.4063 34.1348 16.2568 34.1142C16.1073 34.0936 15.9892 34.0779 15.9023 34.0671Z" fill="white"/>
<path d="M19.9018 25.3574C20.4721 24.7311 21.0206 24.3546 21.5471 24.228C22.0696 24.0978 22.5639 24.2486 23.0299 24.6804C23.3207 24.9499 23.4955 25.2377 23.5544 25.544C23.613 25.8426 23.5789 26.1664 23.4522 26.5153C23.6325 26.527 23.8324 26.5494 24.052 26.5825C24.2675 26.612 24.4892 26.6508 24.717 26.6991C24.9445 26.7396 25.1763 26.7915 25.4124 26.8548C25.6445 26.9145 25.8691 26.9783 26.0863 27.0463L25.1266 28.1003C24.9217 28.0511 24.713 28.002 24.5004 27.9531C24.2915 27.9002 24.083 27.855 23.8748 27.8176C23.6702 27.7761 23.4736 27.7419 23.285 27.7152C23.0924 27.6848 22.9117 27.6654 22.743 27.6571L22.3207 28.1209L23.8323 29.5216L22.9768 30.4612L18.896 26.6797C19.0427 26.438 19.2067 26.2014 19.3882 25.9698C19.5734 25.7342 19.7446 25.5301 19.9018 25.3574ZM20.7458 26.0396C20.6836 26.1079 20.6289 26.1719 20.5817 26.2318C20.5382 26.2877 20.4965 26.3416 20.4566 26.3935L21.5798 27.4344L21.8211 27.1694C22.1429 26.816 22.3294 26.5225 22.3807 26.2887C22.432 26.0549 22.3521 25.8402 22.141 25.6446C21.9378 25.4563 21.7232 25.4017 21.4969 25.4808C21.2704 25.5522 21.02 25.7385 20.7458 26.0396Z" fill="white"/>
<path d="M26.6696 18.8451C27.3682 18.366 27.9883 18.125 28.53 18.1223C29.0686 18.115 29.5155 18.3749 29.8705 18.9017C30.0921 19.2305 30.1965 19.5506 30.1839 19.8622C30.1726 20.1662 30.0654 20.4735 29.8622 20.7841C30.0351 20.8367 30.2247 20.9042 30.4309 20.9867C30.634 21.0646 30.841 21.1531 31.0518 21.2522C31.2641 21.3437 31.4779 21.4472 31.6934 21.5628C31.9058 21.674 32.1099 21.7874 32.3059 21.9033L31.1303 22.7095C30.942 22.6148 30.75 22.5193 30.5542 22.4231C30.3629 22.3239 30.1702 22.2322 29.976 22.1481C29.7863 22.0609 29.6026 21.9827 29.425 21.9136C29.2444 21.8399 29.0729 21.7797 28.9105 21.7331L28.3933 22.0878L29.545 23.7968L28.497 24.5155L25.3879 19.902C25.5859 19.7003 25.7998 19.5075 26.0295 19.3237C26.2636 19.1367 26.477 18.9772 26.6696 18.8451ZM27.3355 19.7021C27.2594 19.7543 27.1915 19.8041 27.1318 19.8516C27.0766 19.8961 27.0237 19.939 26.973 19.9803L27.8288 21.2502L28.1244 21.0475C28.5184 20.7772 28.7672 20.5342 28.8706 20.3184C28.974 20.1026 28.9453 19.8754 28.7845 19.6367C28.6297 19.4071 28.4331 19.3048 28.1947 19.3301C27.9578 19.3477 27.6714 19.4717 27.3355 19.7021Z" fill="white"/>
<path d="M35.0219 16.9908C35.1158 17.2513 35.2311 17.4751 35.3677 17.6621C35.5095 17.8473 35.6666 17.995 35.8391 18.1052C36.0149 18.2085 36.2042 18.2692 36.407 18.2874C36.6098 18.3055 36.8233 18.2735 37.0477 18.1912C37.2669 18.1108 37.4484 17.9979 37.5923 17.8526C37.7413 17.7054 37.8477 17.5363 37.9116 17.3451C37.9787 17.147 38.0051 16.9319 37.9908 16.7C37.9816 16.4663 37.93 16.2191 37.8361 15.9586C37.7422 15.698 37.6244 15.4752 37.4826 15.29C37.3441 15.0979 37.187 14.9502 37.0112 14.8469C36.8387 14.7367 36.6485 14.6734 36.4406 14.6571C36.2378 14.6389 36.0268 14.6701 35.8076 14.7505C35.5833 14.8328 35.4001 14.9491 35.2581 15.0995C35.1142 15.2448 35.0087 15.4166 34.9415 15.6147C34.8777 15.8059 34.8513 16.0209 34.8623 16.2598C34.8766 16.4917 34.9298 16.7353 35.0219 16.9908ZM39.0674 15.507C39.2312 15.9617 39.307 16.3879 39.2945 16.7858C39.2853 17.1767 39.2058 17.5327 39.056 17.8537C38.9043 18.1696 38.6865 18.4462 38.4026 18.6833C38.1237 18.9186 37.7982 19.1046 37.426 19.2411C37.064 19.3738 36.7013 19.4404 36.3377 19.4407C35.9742 19.441 35.6312 19.3701 35.3087 19.2281C34.9844 19.081 34.6917 18.8615 34.4307 18.5697C34.1679 18.2728 33.9545 17.897 33.7906 17.4424C33.6268 16.9877 33.5545 16.563 33.5739 16.1684C33.5915 15.7686 33.6777 15.4073 33.8326 15.0844C33.9927 14.7597 34.2095 14.4806 34.4833 14.2471C34.7621 14.0118 35.0775 13.8297 35.4292 13.7006C35.7912 13.5679 36.154 13.5013 36.5175 13.501C36.8811 13.5007 37.225 13.5741 37.5493 13.7212C37.8736 13.8684 38.1672 14.0904 38.4301 14.3873C38.6911 14.6791 38.9035 15.0523 39.0674 15.507Z" fill="white"/>
<path d="M48.3754 10.7214C49.2225 10.7075 49.8738 10.8489 50.3293 11.1456C50.7848 11.4368 51.0176 11.9001 51.0278 12.5354C51.0342 12.9318 50.9471 13.2563 50.7665 13.5091C50.5913 13.7564 50.3338 13.9534 49.994 14.1002C50.1103 14.2395 50.2323 14.4004 50.3602 14.583C50.4879 14.7601 50.6132 14.9482 50.7359 15.1471C50.8639 15.3405 50.9867 15.5449 51.1042 15.7602C51.2216 15.9701 51.3309 16.1774 51.4319 16.3822L50.0066 16.4055C49.9005 16.2226 49.7916 16.037 49.6799 15.8487C49.5737 15.6604 49.4622 15.4775 49.3452 15.3002C49.2338 15.1228 49.1225 14.9563 49.0113 14.8006C48.9001 14.6395 48.7892 14.4947 48.6785 14.3661L48.0514 14.3764L48.0845 16.437L46.814 16.4578L46.7245 10.895C47.0005 10.8362 47.2849 10.7935 47.5778 10.767C47.8761 10.7404 48.142 10.7252 48.3754 10.7214ZM48.4662 11.8034C48.3739 11.8049 48.2897 11.809 48.2138 11.8157C48.1433 11.8223 48.0755 11.8288 48.0105 11.8353L48.0351 13.3665L48.3935 13.3606C48.8713 13.3528 49.2124 13.2875 49.4168 13.1646C49.6212 13.0418 49.7211 12.8365 49.7164 12.5487C49.712 12.2718 49.603 12.0781 49.3894 11.9675C49.1811 11.8514 48.8734 11.7967 48.4662 11.8034Z" fill="white"/>
<path d="M54.9269 16.4607L56.064 10.9315L59.7953 11.7124L59.5803 12.7576L57.0928 12.237L56.8696 13.3221L59.0781 13.7843L58.8681 14.8056L56.6596 14.3434L56.3856 15.6758L59.0565 16.2348L58.8416 17.28L54.9269 16.4607Z" fill="white"/>
<path d="M63.8576 17.7988C64.0216 17.871 64.1612 17.9176 64.2763 17.9387C64.3986 17.9569 64.5018 17.9578 64.5858 17.9414C64.672 17.92 64.7415 17.8824 64.7944 17.8286C64.8472 17.7747 64.8909 17.7079 64.9254 17.6282C64.9988 17.4587 64.9796 17.2842 64.868 17.1045C64.7586 16.9198 64.5381 16.6774 64.2065 16.3771C64.0634 16.2429 63.9235 16.1012 63.7869 15.952C63.6524 15.7979 63.5429 15.634 63.4583 15.4602C63.3758 15.2815 63.3279 15.0914 63.3146 14.8897C63.3034 14.683 63.3496 14.4601 63.4531 14.2209C63.5566 13.9816 63.6941 13.787 63.8655 13.637C64.039 13.482 64.2369 13.3734 64.4592 13.311C64.6814 13.2487 64.9244 13.234 65.1882 13.2671C65.4541 13.2952 65.7337 13.3738 66.0269 13.5029C66.3748 13.6561 66.6593 13.8259 66.8804 14.0122C67.1016 14.1986 67.2747 14.3728 67.3999 14.5347L66.6666 15.3065C66.5548 15.1683 66.4213 15.0324 66.2661 14.8988C66.118 14.7624 65.9198 14.6395 65.6713 14.53C65.3929 14.4075 65.1744 14.3587 65.0157 14.3838C64.864 14.406 64.7537 14.4969 64.6847 14.6564C64.6437 14.751 64.6316 14.8406 64.6483 14.9251C64.665 15.0096 64.7013 15.0968 64.7571 15.1866C64.82 15.2737 64.8939 15.3626 64.9789 15.4534C65.071 15.5414 65.1719 15.6363 65.2817 15.738C65.507 15.9559 65.6974 16.1584 65.8531 16.3456C66.0109 16.5279 66.1264 16.7122 66.1996 16.8987C66.2777 17.0874 66.3113 17.2831 66.3005 17.486C66.2896 17.6889 66.2303 17.9149 66.1225 18.1641C65.9133 18.6476 65.5815 18.9495 65.1271 19.0698C64.6749 19.1851 64.1083 19.0929 63.4274 18.7931C63.1988 18.6924 62.999 18.5867 62.8281 18.4758C62.6549 18.3699 62.505 18.2653 62.3781 18.162C62.2562 18.0608 62.1527 17.9648 62.0678 17.874C61.9878 17.7854 61.9216 17.7058 61.8693 17.6353L62.5984 16.8527C62.7158 17.0053 62.8712 17.1657 63.0647 17.334C63.2653 17.4994 63.5296 17.6544 63.8576 17.7988Z" fill="white"/>
<path d="M68.4714 20.9872L71.724 16.3735L74.8214 18.5958L74.2066 19.4679L72.1416 17.9864L71.5033 18.8918L73.3366 20.2071L72.7359 21.0593L70.9026 19.744L70.1188 20.8558L72.3359 22.4465L71.7211 23.3186L68.4714 20.9872Z" fill="white"/>
<path d="M79.7186 22.7182C80.2824 23.3506 80.6016 23.9371 80.6764 24.4779C80.7552 25.015 80.5593 25.497 80.0888 25.924C79.7952 26.1903 79.4945 26.3386 79.1866 26.3686C78.8864 26.3991 78.5701 26.3341 78.2379 26.1736C78.2092 26.3536 78.1681 26.5522 78.1145 26.7695C78.0649 26.9832 78.0054 27.2021 77.9361 27.4263C77.8745 27.6509 77.8011 27.8787 77.7162 28.1098C77.6352 28.3372 77.5509 28.5567 77.4631 28.7684L76.5144 27.7044C76.5825 27.5033 76.6508 27.2984 76.7193 27.0896C76.7914 26.8848 76.8558 26.6797 76.9126 26.4742C76.9731 26.2727 77.0255 26.0785 77.0698 25.8916C77.1182 25.7011 77.1545 25.5215 77.1787 25.3528L76.7613 24.8847L75.2351 26.2695L74.3895 25.3211L78.5096 21.5826C78.7341 21.7528 78.952 21.94 79.1632 22.1443C79.3781 22.3526 79.5632 22.544 79.7186 22.7182ZM78.9651 23.501C78.9037 23.4321 78.8456 23.3711 78.791 23.318C78.74 23.2689 78.6908 23.2219 78.6434 23.1769L77.5093 24.206L77.7479 24.4735C78.0659 24.8302 78.3378 25.0454 78.5636 25.1191C78.7894 25.1929 79.0089 25.133 79.222 24.9396C79.4271 24.7535 79.5014 24.5431 79.4449 24.3084C79.3961 24.0741 79.2361 23.805 78.9651 23.501Z" fill="white"/>
<path d="M80.4186 32.7341C80.7276 32.3112 81.0546 31.8816 81.3996 31.4453C81.7446 31.009 82.09 30.5849 82.4357 30.1729C82.7814 29.7609 83.1146 29.3714 83.435 29.0042C83.7581 28.6417 84.0485 28.3219 84.3064 28.0447L84.9698 29.2787C84.7353 29.5308 84.481 29.803 84.2066 30.0955C83.9396 30.3901 83.6726 30.6847 83.4056 30.9793C83.1411 31.2787 82.8884 31.5655 82.6474 31.8397C82.4064 32.114 82.202 32.3588 82.0343 32.5744C82.3023 32.5454 82.6159 32.5038 82.9752 32.4496C83.3371 32.4002 83.7132 32.343 84.1036 32.278C84.4966 32.2177 84.8871 32.1527 85.2749 32.0829C85.6701 32.0152 86.0364 31.951 86.3736 31.8903L87.0138 33.0813C86.6403 33.1433 86.2148 33.212 85.7375 33.2875C85.2602 33.3629 84.7561 33.4344 84.2252 33.502C83.6944 33.5696 83.1536 33.6302 82.6029 33.6838C82.0523 33.7375 81.517 33.7796 80.9971 33.8103L80.4186 32.7341Z" fill="white"/>
<path d="M84.4024 41.9776C84.5752 41.8679 84.7511 41.7489 84.9302 41.6207C85.1106 41.4976 85.291 41.3746 85.4715 41.2516L84.8959 39.1289C84.6785 39.1157 84.4604 39.0998 84.2415 39.0814C84.0242 39.0681 83.8134 39.0587 83.6093 39.053L83.264 37.7794C83.9057 37.822 84.5001 37.8664 85.0471 37.9126C85.5941 37.9588 86.111 38.0077 86.5976 38.0593C87.0856 38.1162 87.5487 38.1743 87.9868 38.2337C88.4315 38.2968 88.8672 38.3681 89.2939 38.4475L89.6115 39.6189C89.2829 39.9011 88.9432 40.1836 88.5922 40.4664C88.2465 40.7477 87.8773 41.0355 87.4845 41.3298C87.0931 41.6293 86.6736 41.9395 86.2261 42.2601C85.7785 42.5808 85.2893 42.9243 84.7584 43.2905L84.4024 41.9776ZM88.2124 39.3459C88.1268 39.3414 88.0088 39.3317 87.8585 39.3169C87.7082 39.302 87.5348 39.2851 87.3384 39.2661C87.1419 39.247 86.925 39.2252 86.6876 39.2006C86.4517 39.1812 86.2046 39.1621 85.9463 39.1432L86.3663 40.692C86.5791 40.5431 86.7822 40.3998 86.9755 40.2619C87.1688 40.1241 87.3445 39.9939 87.5025 39.8714C87.662 39.7542 87.8027 39.6505 87.9246 39.5606C88.0465 39.4706 88.1425 39.399 88.2124 39.3459Z" fill="white"/>
<path d="M15.2316 63.959C15.3323 64.2345 15.486 64.4177 15.6928 64.5088C15.9014 64.6051 16.1355 64.6049 16.3951 64.5083C16.5325 64.4572 16.6462 64.3888 16.7364 64.3032C16.8265 64.2175 16.9008 64.1203 16.9594 64.0116C17.0198 63.9081 17.0679 63.7946 17.1037 63.6711C17.1396 63.5477 17.1745 63.4218 17.2085 63.2933C17.247 63.1457 17.2888 62.9911 17.3338 62.8295C17.3788 62.6679 17.4428 62.5108 17.5258 62.3583C17.6107 62.2108 17.7224 62.0737 17.8611 61.9468C17.9997 61.8199 18.1785 61.7157 18.3973 61.6343C18.6111 61.5548 18.8175 61.5186 19.0167 61.5256C19.2177 61.5378 19.4026 61.5849 19.5714 61.6669C19.742 61.7541 19.893 61.8746 20.0244 62.0285C20.1577 62.1876 20.2625 62.3716 20.339 62.5807C20.4135 62.7847 20.4571 62.9829 20.4696 63.1753C20.482 63.3676 20.4741 63.5357 20.4457 63.6795L19.8254 63.6669C19.8575 63.5333 19.868 63.3961 19.8571 63.2554C19.853 63.1178 19.8259 62.9802 19.7755 62.8425C19.6842 62.5925 19.5418 62.4166 19.3485 62.3147C19.1621 62.216 18.9391 62.215 18.6795 62.3115C18.537 62.3645 18.4207 62.4339 18.3306 62.5195C18.2424 62.6103 18.169 62.71 18.1104 62.8187C18.0537 62.9325 18.0084 63.0537 17.9744 63.1822C17.9423 63.3158 17.9095 63.4554 17.876 63.6011C17.8426 63.7469 17.8024 63.898 17.7555 64.0544C17.7086 64.2109 17.6418 64.3603 17.5551 64.5027C17.4753 64.6482 17.3652 64.7819 17.2247 64.9037C17.0911 65.0287 16.9149 65.1319 16.6961 65.2133C16.4976 65.2871 16.2981 65.3266 16.0976 65.3316C15.8971 65.3367 15.7039 65.2985 15.518 65.217C15.339 65.1387 15.1725 65.0152 15.0184 64.8466C14.8712 64.6812 14.7491 64.4659 14.6522 64.2007C14.5627 63.9558 14.5124 63.7312 14.5013 63.5268C14.4901 63.3223 14.5043 63.1317 14.5437 62.9548L15.1717 62.9645C15.1387 63.1274 15.1219 63.2872 15.1214 63.4438C15.1278 63.6037 15.1645 63.7754 15.2316 63.959Z" fill="#FFDE00"/>
<path d="M16.3754 68.1692L21.34 65.4826L22.5294 67.7193L21.9777 68.0178L21.1326 66.4284L19.5923 67.2619L20.3572 68.7003L19.8199 68.9911L19.055 67.5526L17.2712 68.5179L18.1776 70.2225L17.6259 70.521L16.3754 68.1692Z" fill="#FFDE00"/>
<path d="M21.0042 74.2754C21.2396 73.9438 21.4607 73.6203 21.6675 73.3051C21.8743 72.9898 22.0659 72.6903 22.2424 72.4067C22.4265 72.1239 22.5891 71.8621 22.7303 71.6212C22.8714 71.3804 22.9923 71.1664 23.0931 70.9794C22.8395 71.1578 22.5622 71.3589 22.2614 71.5827C21.9682 71.8073 21.6649 72.0366 21.3514 72.2706C21.0414 72.5089 20.7292 72.7489 20.415 72.9907C20.1083 73.2332 19.8143 73.4654 19.5329 73.6874L19.0954 73.1403C19.4847 72.8445 19.876 72.5471 20.2695 72.2479C20.6672 71.9453 21.0582 71.6517 21.4424 71.367C21.8342 71.0832 22.2155 70.8079 22.5863 70.5412C22.9605 70.2788 23.3174 70.0339 23.657 69.8065L24.1098 70.3727C23.9897 70.5964 23.8423 70.8599 23.6675 71.1631C23.497 71.4628 23.3139 71.7729 23.1181 72.0932C22.9257 72.4178 22.7299 72.7381 22.5307 73.0542C22.3315 73.3703 22.1454 73.6548 21.9722 73.9078C22.2539 73.7906 22.5672 73.6651 22.9122 73.5314C23.2572 73.3977 23.6056 73.2682 23.9574 73.143C24.3092 73.0177 24.6467 72.9007 24.9698 72.7917C25.3005 72.6836 25.587 72.5941 25.8291 72.523L26.2818 73.0893C25.9897 73.376 25.6752 73.6739 25.3383 73.9831C25.0048 74.2964 24.6574 74.6141 24.2961 74.9361C23.9424 75.2589 23.5769 75.5843 23.1995 75.9124C22.8264 76.237 22.4554 76.5599 22.0865 76.8811L21.649 76.334C21.9202 76.0993 22.2062 75.8526 22.5069 75.5939C22.811 75.3395 23.1117 75.0808 23.409 74.8179C23.7139 74.5557 24.0066 74.3001 24.2871 74.0509C24.5717 73.7982 24.8294 73.564 25.0602 73.3483C24.9244 73.3958 24.7527 73.455 24.5451 73.5258C24.3452 73.5975 24.1271 73.6769 23.8909 73.7641C23.6581 73.8556 23.4156 73.9479 23.1634 74.0411C22.9187 74.1352 22.6821 74.2262 22.4535 74.3142C22.2283 74.4064 22.0213 74.4909 21.8323 74.5676C21.651 74.6452 21.5038 74.7089 21.3908 74.7589L21.0042 74.2754Z" fill="#FFDE00"/>
<path d="M28.3944 75.4763C28.7428 75.6525 29.0553 75.8587 29.3319 76.0951C29.5466 76.2785 29.718 76.4713 29.846 76.6735C29.9817 76.8751 30.0643 77.085 30.0939 77.3031C30.1311 77.5206 30.1094 77.7449 30.0288 77.976C29.9524 78.2106 29.8111 78.4507 29.6051 78.696C29.3957 78.9456 29.1808 79.1298 28.9604 79.2487C28.7436 79.3634 28.524 79.4222 28.3018 79.4252C28.083 79.424 27.8618 79.3707 27.6383 79.2654C27.4188 79.1637 27.1997 79.0193 26.9809 78.8324L26.7208 78.6102L25.3748 80.2135L24.8174 79.7373L28.3944 75.4763ZM27.1345 78.1173L27.3575 78.3078C27.4978 78.4277 27.636 78.5207 27.7719 78.5868C27.9154 78.6523 28.0561 78.6832 28.1939 78.6796C28.3317 78.6759 28.4684 78.6355 28.604 78.5585C28.7395 78.4815 28.8771 78.3598 29.0168 78.1934C29.1565 78.027 29.2528 77.8701 29.3058 77.7225C29.3622 77.5708 29.3812 77.4299 29.3628 77.2998C29.3519 77.1692 29.3071 77.0452 29.2284 76.9279C29.1496 76.8106 29.0483 76.699 28.9244 76.5932C28.817 76.5015 28.7127 76.4231 28.6114 76.358L27.1345 78.1173Z" fill="#FFDE00"/>
<path d="M32.3343 78.7068C32.7063 78.8255 33.043 78.9768 33.3444 79.1605C33.5855 79.3075 33.7867 79.4683 33.9479 79.643C34.1091 79.8176 34.223 80.0079 34.2896 80.2138C34.3561 80.4198 34.3692 80.6408 34.329 80.8771C34.2934 81.1161 34.1946 81.3707 34.0327 81.6409C33.8318 81.9763 33.6036 82.2092 33.3482 82.3397C33.1002 82.4683 32.8351 82.5198 32.553 82.494C32.5528 82.6211 32.5456 82.7916 32.5314 83.0056C32.5246 83.2177 32.5066 83.4484 32.4775 83.6977C32.4558 83.9453 32.4253 84.197 32.3859 84.4528C32.3512 84.7115 32.3082 84.9524 32.2568 85.1755L31.6309 84.7938C31.6636 84.623 31.6936 84.425 31.7208 84.1999C31.7527 83.9777 31.7786 83.7549 31.7984 83.5317C31.821 83.3038 31.838 83.0852 31.8494 82.8759C31.8637 82.662 31.8718 82.4794 31.8739 82.328C31.7941 82.2921 31.7134 82.2524 31.6318 82.209C31.5502 82.1656 31.47 82.1199 31.3912 82.0718L31.2173 81.9658L30.0869 83.8524L29.4749 83.4792L32.3343 78.7068ZM31.5271 81.4487L31.7914 81.6099C32.1113 81.8049 32.4003 81.8826 32.6584 81.8428C32.9192 81.7983 33.1571 81.5967 33.372 81.238C33.4809 81.0564 33.5484 80.8908 33.5746 80.7414C33.6082 80.5902 33.6043 80.4542 33.5627 80.3335C33.5285 80.2109 33.4632 80.0979 33.3669 79.9947C33.2751 79.8942 33.1597 79.8016 33.0206 79.7168C32.9001 79.6433 32.7846 79.5824 32.6742 79.5342L31.5271 81.4487Z" fill="#FFDE00"/>
<path d="M34.9319 86.5696L37.0506 81.3374L39.3928 82.3026L39.1574 82.884L37.493 82.1981L36.8357 83.8214L38.3419 84.4421L38.1126 85.0083L36.6064 84.3876L35.8451 86.2676L37.63 87.0031L37.3946 87.5845L34.9319 86.5696Z" fill="#FFDE00"/>
<path d="M49.1838 87.2235C49.1401 87.7484 49.0461 88.19 48.9018 88.5484C48.7634 88.9018 48.5793 89.1832 48.3493 89.3927C48.1248 89.6025 47.8594 89.7463 47.5533 89.8239C47.2525 89.902 46.9209 89.9256 46.5583 89.8949C46.1904 89.8638 45.8048 89.782 45.4017 89.6498L45.8558 84.1948C46.065 84.1689 46.2681 84.1507 46.4652 84.1402C46.6622 84.1296 46.85 84.1319 47.0286 84.147C47.3965 84.1782 47.7223 84.2576 48.006 84.3851C48.295 84.5132 48.5329 84.6995 48.7196 84.9442C48.9117 85.1894 49.0466 85.5006 49.1241 85.8777C49.2076 86.25 49.2275 86.6985 49.1838 87.2235ZM48.4046 87.1575C48.4379 86.757 48.4365 86.4135 48.4004 86.1271C48.3643 85.8406 48.2915 85.6028 48.1819 85.4137C48.0723 85.2246 47.9181 85.0807 47.7192 84.9821C47.5258 84.884 47.2884 84.823 47.007 84.7992C46.9313 84.7928 46.8553 84.789 46.7791 84.788C46.7029 84.787 46.6237 84.7885 46.5417 84.7925L46.1768 89.1759C46.257 89.1936 46.3348 89.2084 46.4101 89.2202C46.4854 89.232 46.5583 89.2409 46.6286 89.2469C46.9154 89.2712 47.1623 89.2512 47.3692 89.187C47.5762 89.1228 47.7491 89.0094 47.888 88.8467C48.0327 88.6792 48.1465 88.4572 48.2295 88.1808C48.3124 87.9045 48.3708 87.5633 48.4046 87.1575Z" fill="#FFDE00"/>
<path d="M51.9575 84.418L52.6897 84.3817L52.964 90.0199L52.2318 90.0562L51.9575 84.418Z" fill="#FFDE00"/>
<path d="M56.2682 89.2107C56.5578 89.1642 56.7676 89.0479 56.8976 88.862C57.0331 88.6753 57.0792 88.4451 57.036 88.1716C57.0131 88.0267 56.9687 87.9019 56.9027 87.797C56.8366 87.6921 56.7562 87.6005 56.6614 87.5222C56.5719 87.4431 56.4703 87.3742 56.3566 87.3155C56.2429 87.2567 56.1264 87.1984 56.0074 87.1406C55.8705 87.0746 55.7274 87.0041 55.5781 86.929C55.4288 86.854 55.2877 86.7612 55.1548 86.6506C55.0273 86.5391 54.9151 86.4031 54.8183 86.2426C54.7215 86.0822 54.6549 85.8866 54.6184 85.656C54.5829 85.4307 54.5882 85.2208 54.6345 85.0264C54.6861 84.8311 54.7688 84.6583 54.8825 84.508C55.0016 84.3569 55.1494 84.2314 55.3261 84.1315C55.5081 84.0308 55.709 83.9627 55.9288 83.9274C56.1433 83.893 56.3459 83.8879 56.5367 83.9123C56.7275 83.9366 56.8904 83.9764 57.0256 84.0317L56.8906 84.6391C56.7662 84.5821 56.6339 84.5456 56.494 84.5296C56.3585 84.5074 56.2184 84.5079 56.0737 84.5312C55.8109 84.5734 55.6106 84.6798 55.4726 84.8505C55.3391 85.0149 55.294 85.2339 55.3372 85.5075C55.3609 85.6577 55.4058 85.7852 55.4718 85.8901C55.5432 85.9941 55.6263 86.0853 55.7211 86.1636C55.8213 86.241 55.931 86.3086 56.0501 86.3665C56.1745 86.4235 56.3047 86.4823 56.4408 86.5429C56.5768 86.6036 56.7168 86.6718 56.8607 86.7477C57.0046 86.8236 57.1377 86.9177 57.2599 87.0301C57.3866 87.1362 57.4957 87.2699 57.5871 87.4312C57.683 87.5863 57.7492 87.7792 57.7857 88.0098C57.8187 88.219 57.8178 88.4227 57.7832 88.6208C57.7485 88.8188 57.6728 89.0015 57.5563 89.1687C57.4443 89.3297 57.2905 89.4699 57.0949 89.5893C56.9039 89.7025 56.669 89.7815 56.3902 89.8263C56.1328 89.8677 55.903 89.8744 55.7006 89.8464C55.4983 89.8184 55.3144 89.7682 55.1491 89.6958L55.2828 89.0803C55.4358 89.1437 55.5888 89.1906 55.7421 89.221C55.8998 89.2451 56.0752 89.2417 56.2682 89.2107Z" fill="#FFDE00"/>
<path d="M58.9517 83.5894C59.2872 83.3873 59.6285 83.2318 59.9756 83.1229C60.2451 83.0383 60.499 82.9957 60.7374 82.9948C60.9794 82.9872 61.1997 83.029 61.3984 83.1204C61.6006 83.2049 61.7768 83.3431 61.9269 83.535C62.0822 83.7253 62.207 83.9736 62.3014 84.2797C62.3974 84.5911 62.4358 84.8722 62.4165 85.1229C62.3957 85.3685 62.3265 85.5866 62.2091 85.7771C62.0901 85.9624 61.9262 86.122 61.7174 86.2558C61.5138 86.388 61.2747 86.4972 61.0001 86.5834L60.6737 86.6858L61.2906 88.6863L60.5911 88.9058L58.9517 83.5894ZM60.4841 86.0709L60.7639 85.9831C60.94 85.9278 61.0925 85.86 61.2212 85.7798C61.3534 85.6928 61.4552 85.5897 61.5264 85.4706C61.5977 85.3515 61.6376 85.2137 61.6462 85.0574C61.6548 84.901 61.6271 84.719 61.5631 84.5114C61.4991 84.3039 61.4196 84.1382 61.3246 84.0143C61.2279 83.8853 61.1202 83.7939 61.0013 83.7401C60.886 83.6795 60.758 83.6514 60.6173 83.6557C60.4766 83.6601 60.3285 83.6866 60.173 83.7354C60.0383 83.7777 59.9164 83.8245 59.8072 83.8758L60.4841 86.0709Z" fill="#FFDE00"/>
<path d="M68.3364 82.7348C68.5361 83.1267 68.6824 83.5035 68.7753 83.8651C68.8706 84.2195 68.9027 84.5515 68.8716 84.8612C68.8429 85.1636 68.7473 85.4365 68.5849 85.6798C68.4272 85.9206 68.1966 86.1198 67.8929 86.2773C67.5892 86.4348 67.292 86.5094 67.0013 86.5012C66.7155 86.4904 66.4399 86.4101 66.1745 86.2602C65.9115 86.1029 65.6625 85.8834 65.4275 85.6016C65.1899 85.3149 64.9713 84.9757 64.7716 84.5838C64.5718 84.1919 64.4255 83.8151 64.3326 83.4534C64.2397 83.0917 64.2076 82.7597 64.2363 82.4573C64.2674 82.1475 64.3618 81.8723 64.5194 81.6315C64.6794 81.3833 64.9112 81.1805 65.2149 81.023C65.5186 80.8654 65.8146 80.7945 66.1029 80.8101C66.3936 80.8184 66.6705 80.9011 66.9334 81.0584C67.1988 81.2083 67.4478 81.4278 67.6805 81.7169C67.918 82.0036 68.1366 82.3429 68.3364 82.7348ZM67.6422 83.0948C67.4869 82.79 67.3258 82.5218 67.159 82.2902C66.9922 82.0586 66.8198 81.8758 66.6418 81.7418C66.4613 81.603 66.2753 81.519 66.0837 81.4899C65.897 81.4583 65.7048 81.4938 65.5071 81.5963C65.3095 81.6988 65.1667 81.8371 65.0786 82.0112C64.9954 82.1828 64.9573 82.3831 64.9643 82.6119C64.9687 82.836 65.0134 83.085 65.0982 83.3591C65.1879 83.6307 65.3104 83.9189 65.4657 84.2237C65.6211 84.5285 65.7822 84.7967 65.9489 85.0283C66.1206 85.2574 66.2954 85.4389 66.4734 85.573C66.6514 85.707 66.8338 85.7898 67.0205 85.8214C67.2096 85.8456 67.403 85.8065 67.6007 85.704C67.7983 85.6015 67.94 85.4668 68.0256 85.3C68.1136 85.1259 68.1554 84.9269 68.1509 84.7028C68.1465 84.4788 68.0994 84.231 68.0097 83.9594C67.9201 83.6878 67.7976 83.3996 67.6422 83.0948Z" fill="#FFDE00"/>
<path d="M74.8383 81.7074C74.5399 81.5345 74.2116 81.354 73.8535 81.166C73.4963 80.9703 73.1305 80.7813 72.7562 80.599C72.3829 80.4091 72.0086 80.2268 71.6334 80.0522C71.2549 79.8732 70.895 79.7141 70.554 79.5748L73.1994 82.9968L72.6617 83.4199L69.2091 78.9539L69.6893 78.5761C70.0574 78.7149 70.4241 78.8652 70.7893 79.0269C71.1589 79.1853 71.5182 79.3482 71.8673 79.5158C72.2131 79.679 72.5488 79.8468 72.8742 80.0191C73.2006 80.1838 73.5063 80.344 73.7914 80.4997L71.3153 77.2968L71.8531 76.8738L75.3056 81.3397L74.8383 81.7074Z" fill="#FFDE00"/>
<path d="M73.9207 74.9837L74.4306 74.457L78.4519 78.4186L77.942 78.9453L73.9207 74.9837ZM73.8503 72.9134L73.9154 74.5325L73.457 74.5727L73.2029 72.9732L73.8503 72.9134Z" fill="#FFDE00"/>
<path d="M80.8947 75.6717C80.4965 75.5232 80.0962 75.3729 79.6937 75.2211C79.2869 75.0659 78.865 74.8991 78.4281 74.7207C77.9945 74.538 77.5414 74.3405 77.0691 74.128C76.5923 73.9122 76.0812 73.6699 75.5356 73.4012L75.9972 72.7902C76.3712 72.9887 76.7523 73.1824 77.1405 73.3712C77.5244 73.5568 77.9072 73.7346 78.289 73.9049C78.6708 74.0751 79.044 74.2387 79.4086 74.3957C79.7722 74.5451 80.119 74.685 80.4492 74.8156C80.2369 74.529 80.0095 74.231 79.767 73.9213C79.5236 73.604 79.2698 73.2822 79.0059 72.956C78.7419 72.6297 78.4703 72.3045 78.1912 71.9803C77.9078 71.6529 77.6216 71.3335 77.3326 71.0223L77.7794 70.4309C78.181 70.8903 78.5481 71.3232 78.8808 71.7296C79.2092 72.1328 79.5165 72.5232 79.8029 72.9009C80.0925 73.2742 80.3654 73.6381 80.6217 73.9927C80.8736 74.3439 81.1233 74.6934 81.3709 75.0413L80.8947 75.6717Z" fill="#FFDE00"/>
<path d="M83.8604 71.4533L78.9134 68.7346L80.1171 66.5056L80.6667 66.8076L79.8114 68.3916L81.3462 69.2351L82.1203 67.8016L82.6557 68.0959L81.8816 69.5293L83.6591 70.5062L84.5764 68.8075L85.1261 69.1096L83.8604 71.4533Z" fill="#FFDE00"/>
<path d="M86.6881 63.83L87.2752 64.0509L86.4021 66.4117L81.119 64.4232L81.3733 63.7357L86.0694 65.5031L86.6881 63.83Z" fill="#FFDE00"/>
<path d="M41.4893 51.4716C39.7169 51.4716 38.2688 50.0108 38.2688 48.2228C38.2688 46.4348 39.7169 44.9739 41.4893 44.9739C43.2617 44.9739 44.7098 46.4348 44.7098 48.2228C44.7098 50.0108 43.2617 51.4716 41.4893 51.4716ZM41.4893 45.7652C40.1468 45.7652 39.0532 46.8685 39.0532 48.2228C39.0532 49.5771 40.1468 50.6803 41.4893 50.6803C42.8318 50.6803 43.9254 49.5771 43.9254 48.2228C43.9254 46.8685 42.8318 45.7652 41.4893 45.7652Z" fill="#E30613" stroke="#BE1622" stroke-width="0.3394" stroke-miterlimit="10"/>
<path d="M41.4892 49.6228C40.6897 49.6228 40.0411 48.9685 40.0411 48.1619C40.0411 47.3554 40.6897 46.7011 41.4892 46.7011C42.2886 46.7011 42.9373 47.3554 42.9373 48.1619C42.9373 48.9685 42.2886 49.6228 41.4892 49.6228ZM41.4892 47.4924C41.1271 47.4924 40.8255 47.7891 40.8255 48.1619C40.8255 48.5348 41.1196 48.8315 41.4892 48.8315C41.8587 48.8315 42.1529 48.5348 42.1529 48.1619C42.1529 47.7891 41.8587 47.4924 41.4892 47.4924Z" fill="#E30613" stroke="#BE1622" stroke-width="0.3394" stroke-miterlimit="10"/>
<path d="M59.2059 51.4716C57.4335 51.4716 55.9854 50.0108 55.9854 48.2228C55.9854 46.4348 57.4335 44.9739 59.2059 44.9739C60.9783 44.9739 62.4264 46.4348 62.4264 48.2228C62.4264 50.0108 60.9783 51.4716 59.2059 51.4716ZM59.2059 45.7652C57.8634 45.7652 56.7698 46.8685 56.7698 48.2228C56.7698 49.5771 57.8634 50.6803 59.2059 50.6803C60.5484 50.6803 61.642 49.5771 61.642 48.2228C61.642 46.8685 60.5484 45.7652 59.2059 45.7652Z" fill="#E30613" stroke="#BE1622" stroke-width="0.3394" stroke-miterlimit="10"/>
<path d="M59.2057 49.6228C58.4063 49.6228 57.7576 48.9685 57.7576 48.1619C57.7576 47.3554 58.4063 46.7011 59.2057 46.7011C60.0052 46.7011 60.6538 47.3554 60.6538 48.1619C60.6538 48.9685 60.0052 49.6228 59.2057 49.6228ZM59.2057 47.4924C58.8437 47.4924 58.542 47.7891 58.542 48.1619C58.542 48.5348 58.8362 48.8315 59.2057 48.8315C59.5753 48.8315 59.8694 48.5348 59.8694 48.1619C59.8694 47.7891 59.5753 47.4924 59.2057 47.4924Z" fill="#E30613" stroke="#BE1622" stroke-width="0.3394" stroke-miterlimit="10"/>
<path d="M55.0351 47.8044H45.6451V48.5957H55.0351V47.8044Z" fill="#E30613" stroke="#BE1622" stroke-width="0.3394" stroke-miterlimit="10"/>
<path d="M38.5782 48.6109L36.2401 48.0555L36.2552 42.6306C36.2552 41.9839 36.4965 41.3676 36.9189 40.8883L38.3745 39.2524C38.9176 38.6437 41.0822 37.7764 41.8364 37.7764L47.048 37.6166C49.7707 37.5329 52.4784 38.1796 54.8768 39.4807L57.7654 41.048L62.9016 42.0447C64.3648 42.3263 65.4886 43.5132 65.6997 44.9969V45.0425L65.7601 46.8153C65.7752 47.3859 65.3453 47.8653 64.7796 47.9033L62.0569 48.0783L62.0041 47.287L64.7268 47.112C64.8701 47.1044 64.9757 46.9827 64.9682 46.8381L64.9154 45.0882C64.7419 43.9469 63.8745 43.0339 62.7508 42.8208L57.4939 41.8013L54.4997 40.173C52.2219 38.9405 49.6501 38.3318 47.0706 38.4079L41.8439 38.5676C41.2255 38.5676 39.3173 39.3742 38.9553 39.785L37.4997 41.4208C37.198 41.7556 37.0396 42.1893 37.032 42.6382V47.4392L38.7516 47.8501L38.5706 48.6261L38.5782 48.6109Z" fill="#E30613" stroke="#BE1622" stroke-width="0.3394" stroke-miterlimit="10"/>
<path d="M56.634 42.4708L40.0941 41.4969L39.8301 40.8273C39.8301 40.8273 40.4486 40.1578 40.9539 39.6024L41.5347 40.1426C41.3537 40.3404 41.1576 40.561 40.9765 40.7512L56.5058 41.6643L57.1394 41.0175L57.6975 41.573L56.9433 42.349L56.6416 42.4632L56.634 42.4708Z" fill="#E30613" stroke="#BE1622" stroke-width="0.3394" stroke-miterlimit="10"/>
<path d="M65.2698 45.187H64.2064C63.4295 45.187 62.6904 44.8142 62.2303 44.1903L62.0116 43.8936L62.6376 43.4142L62.8563 43.711C63.1731 44.1371 63.6784 44.3881 64.2064 44.3881H65.2698V45.1794V45.187Z" fill="#E30613" stroke="#BE1622" stroke-width="0.3394" stroke-miterlimit="10"/>
<path d="M46.1796 43.2063L46.1565 43.9973L57.3969 44.3318L57.4201 43.5409L46.1796 43.2063Z" fill="#E30613" stroke="#BE1622" stroke-width="0.3394" stroke-miterlimit="10"/>
<path d="M46.158 44.0001L45.2152 43.9697L45.2454 43.1784L46.1882 43.2088L46.158 44.0001ZM44.1669 43.9316L43.1185 43.8936L43.1487 43.1023L44.1971 43.1403L44.1669 43.9316Z" fill="#E30613" stroke="#BE1622" stroke-width="0.3394" stroke-miterlimit="10"/>
</g>
<defs>
<linearGradient id="paint0_linear_138_659" x1="2.07413" y1="51.4489" x2="99.9259" y2="51.4489" gradientUnits="userSpaceOnUse">
<stop stop-color="#E94E1B"/>
<stop offset="0.31" stop-color="#E30613"/>
<stop offset="1" stop-color="#BE1622"/>
</linearGradient>
<radialGradient id="paint1_radial_138_659" cx="0" cy="0" r="1" gradientUnits="userSpaceOnUse" gradientTransform="translate(51 51.4489) scale(46.5652 46.9751)">
<stop stop-color="#E94E1B"/>
<stop offset="0.31" stop-color="#E30613"/>
<stop offset="1" stop-color="#BE1622"/>
</radialGradient>
<linearGradient id="paint2_linear_138_659" x1="4.05771" y1="-3.24286e-05" x2="97.9424" y2="-3.24286e-05" gradientUnits="userSpaceOnUse">
<stop stop-color="#E94E1B"/>
<stop offset="0.31" stop-color="#E30613"/>
<stop offset="1" stop-color="#BE1622"/>
</linearGradient>
<radialGradient id="paint3_radial_138_659" cx="0" cy="0" r="1" gradientUnits="userSpaceOnUse" gradientTransform="translate(51 27.7179) scale(40.6899 41.048)">
<stop stop-color="#36A9E1"/>
<stop offset="0.31" stop-color="#1D71B8"/>
<stop offset="1" stop-color="#BE1622"/>
</radialGradient>
<linearGradient id="paint4_linear_138_659" x1="7.14232e-06" y1="27.7179" x2="102" y2="27.7179" gradientUnits="userSpaceOnUse">
<stop stop-color="#36A9E1"/>
<stop offset="0.31" stop-color="#1D71B8"/>
<stop offset="1" stop-color="#BE1622"/>
</linearGradient>
<clipPath id="clip0_138_659">
<rect width="102" height="102" fill="white"/>
</clipPath>
</defs>
</svg>
