<svg width="56" height="56" viewBox="0 0 56 56" fill="none" xmlns="http://www.w3.org/2000/svg">
<circle opacity="0.2" cx="28" cy="28" r="28" fill="#680712"/>
<path d="M24 31.5H32" stroke="#680712" stroke-width="3" stroke-linecap="round" stroke-linejoin="round"/>
<path d="M24 26.5H32" stroke="#680712" stroke-width="3" stroke-linecap="round" stroke-linejoin="round"/>
<path d="M32 17H37C37.2652 17 37.5196 17.1054 37.7071 17.2929C37.8946 17.4804 38 17.7348 38 18V39C38 39.2652 37.8946 39.5196 37.7071 39.7071C37.5196 39.8946 37.2652 40 37 40H19C18.7348 40 18.4804 39.8946 18.2929 39.7071C18.1054 39.5196 18 39.2652 18 39V18C18 17.7348 18.1054 17.4804 18.2929 17.2929C18.4804 17.1054 18.7348 17 19 17H24" stroke="#680712" stroke-width="3" stroke-linecap="round" stroke-linejoin="round"/>
<path d="M23 21V20C23 18.6739 23.5268 17.4021 24.4645 16.4645C25.4021 15.5268 26.6739 15 28 15C29.3261 15 30.5979 15.5268 31.5355 16.4645C32.4732 17.4021 33 18.6739 33 20V21H23Z" stroke="#680712" stroke-width="3" stroke-linecap="round" stroke-linejoin="round"/>
</svg>
