<svg width="56" height="56" viewBox="0 0 56 56" fill="none" xmlns="http://www.w3.org/2000/svg">
<circle opacity="0.2" cx="28" cy="28" r="28" fill="#680712"/>
<path d="M39.3625 20.875C40.0184 22.4066 40.179 24.105 39.8217 25.7324C39.4644 27.3598 38.6071 28.8347 37.3699 29.9507C36.1327 31.0667 34.5775 31.7678 32.922 31.956C31.2664 32.1441 29.5935 31.8099 28.1375 31V31L21.125 39.125C20.5614 39.6886 19.797 40.0052 19 40.0052C18.2029 40.0052 17.4385 39.6886 16.875 39.125C16.3114 38.5614 15.9948 37.797 15.9948 37C15.9948 36.203 16.3114 35.4386 16.875 34.875L25 27.8625C24.1901 26.4064 23.8558 24.7335 24.0439 23.078C24.2321 21.4225 24.9332 19.8672 26.0492 18.63C27.1652 17.3928 28.6401 16.5355 30.2675 16.1782C31.8949 15.821 33.5933 15.9815 35.125 16.6375L29.875 21.875L30.5875 25.4125L34.125 26.125L39.3625 20.875Z" stroke="#680712" stroke-width="3" stroke-linecap="round" stroke-linejoin="round"/>
</svg>
