<svg width="102" height="102" viewBox="0 0 102 102" fill="none" xmlns="http://www.w3.org/2000/svg">
<g clip-path="url(#clip0_138_714)">
<path d="M80.2989 55.6397C78.208 55.9436 76.4002 54.2612 76.4002 52.1118C76.4002 52.0969 76.4002 52.0821 76.4002 52.0673C76.4002 37.7479 65.0305 26.1411 51.0036 26.1411C36.9767 26.1411 25.6071 37.7479 25.6071 52.0673C25.6071 52.0821 25.6071 52.0969 25.6071 52.1118C25.6071 54.2612 23.7993 55.9436 21.7083 55.6397L4.29083 53.1197C4.84262 78.9792 25.5345 99.7691 50.9964 99.7691C76.4582 99.7691 97.1501 78.9792 97.7019 53.1197L80.2989 55.6397Z" stroke="#981424" stroke-width="0.676205" stroke-miterlimit="10"/>
<path d="M99.8074 52.8159C99.8146 52.8085 99.8146 52.8085 99.8219 52.801C100.214 24.9404 78.208 2.22351 51.0036 2.22351C23.7993 2.22351 1.78602 24.9404 2.18534 52.801C2.1926 52.8085 2.1926 52.8085 2.19986 52.8159L21.7083 55.6323C23.7993 55.9362 25.6071 54.2537 25.6071 52.1043C25.6071 52.0895 25.6071 52.0747 25.6071 52.0599C25.6071 37.7404 36.9767 26.1337 51.0036 26.1337C65.0305 26.1337 76.4002 37.7404 76.4002 52.0599C76.4002 52.0747 76.4002 52.0895 76.4002 52.1043C76.4002 54.2537 78.208 55.9362 80.2989 55.6323L99.8074 52.8159Z" fill="#981424" stroke="#981424" stroke-width="0.676205" stroke-miterlimit="10"/>
<path d="M51.0036 2.22351C78.208 2.22351 100.214 24.9404 99.8219 52.801C99.8146 52.8085 99.8146 52.8085 99.8074 52.8159L97.7092 53.1198C97.1574 78.9792 76.4655 99.7691 51.0036 99.7691C25.5417 99.7691 4.84262 78.9792 4.29083 53.1198L2.19261 52.8159C2.18535 52.8085 2.18535 52.8085 2.17809 52.801C1.78603 24.9404 23.7993 2.22351 51.0036 2.22351ZM51.0036 0C37.2381 0 24.3365 5.51432 14.6731 15.5201C5.01686 25.5259 -0.196034 38.7781 0.00725492 52.8381C0.0145152 53.3643 0.210543 53.8757 0.551778 54.276C0.559038 54.2834 0.573559 54.2982 0.580819 54.3056C0.922053 54.6984 1.38671 54.9504 1.90219 55.0246L2.19987 55.069C2.91864 67.4614 8.05893 79.0014 16.7931 87.7399C25.9846 96.9378 38.1384 102.007 51.0109 102.007C63.8834 102.007 76.0371 96.9452 85.2287 87.7399C93.9628 79.0014 99.1031 67.4614 99.8219 55.069L100.12 55.0246C100.635 54.9504 101.107 54.691 101.448 54.2908C101.789 53.8906 102 53.3717 102.007 52.8381C102.203 38.7781 96.9976 25.5259 87.3342 15.5201C77.6635 5.51432 64.7619 0 51.0036 0Z" fill="#981424"/>
<path d="M16.2703 45.3226C16.3139 45.1003 16.3284 44.9076 16.3211 44.7593C16.3139 44.6111 16.2848 44.4777 16.2413 44.3813C16.1977 44.2776 16.1324 44.2034 16.0525 44.1516C15.9726 44.0997 15.8782 44.0626 15.7766 44.0404C15.5515 43.9959 15.341 44.07 15.1522 44.2553C14.9634 44.4406 14.7311 44.7816 14.4552 45.2781C14.3318 45.4931 14.1939 45.708 14.0486 45.9156C13.9034 46.1231 13.7292 46.3084 13.5404 46.4566C13.3517 46.6048 13.1339 46.7234 12.887 46.7901C12.6401 46.8643 12.357 46.8643 12.0375 46.7975C11.7181 46.7308 11.4422 46.6123 11.2099 46.4418C10.9775 46.2713 10.7888 46.049 10.6581 45.7896C10.5201 45.5301 10.433 45.2337 10.3967 44.8927C10.3604 44.5518 10.3822 44.1812 10.4621 43.781C10.5492 43.3066 10.6799 42.9064 10.8469 42.5803C11.0138 42.2542 11.1808 41.9873 11.3406 41.7872L12.4804 42.4913C12.3425 42.6692 12.2118 42.8693 12.0884 43.0917C11.9649 43.314 11.8706 43.6031 11.8052 43.9366C11.7326 44.3146 11.7326 44.6037 11.8052 44.789C11.8778 44.9743 12.0158 45.0929 12.2336 45.1299C12.357 45.1521 12.4732 45.1447 12.5675 45.1003C12.6619 45.0558 12.7636 44.9817 12.8507 44.8853C12.9451 44.789 13.0322 44.6704 13.1121 44.537C13.1919 44.4036 13.2863 44.2553 13.3807 44.0849C13.584 43.7439 13.7728 43.4549 13.9543 43.2029C14.1358 42.9583 14.3318 42.7656 14.5351 42.6173C14.7456 42.4691 14.9707 42.3802 15.2176 42.3357C15.4644 42.2912 15.7621 42.306 16.0888 42.3728C16.735 42.4988 17.1924 42.8323 17.4537 43.3659C17.7224 43.8996 17.7659 44.6333 17.5844 45.5598C17.5263 45.8711 17.4537 46.1527 17.3666 46.3973C17.2795 46.6419 17.1924 46.8568 17.1052 47.0347C17.0181 47.22 16.9237 47.3757 16.8366 47.5017C16.7495 47.6277 16.6696 47.7388 16.597 47.8204L15.4499 47.1237C15.6024 46.9384 15.7548 46.6938 15.9 46.4047C16.067 46.1379 16.1832 45.7673 16.2703 45.3226Z" fill="white"/>
<path d="M18.187 42.1504L11.5801 39.6601L13.2282 35.1019L14.477 35.5762L13.3807 38.615L14.6803 39.1042L15.6532 36.4063L16.8729 36.8659L15.9 39.5637L17.49 40.1641L18.6735 36.9029L19.9222 37.3773L18.187 42.1504Z" fill="white"/>
<path d="M15.0433 31.3812C15.5734 30.4473 16.1469 29.8321 16.7495 29.5282C17.3594 29.2244 18.0056 29.2762 18.688 29.6839C19.1164 29.9359 19.4068 30.2472 19.5593 30.6029C19.7117 30.9587 19.7553 31.3737 19.6972 31.8407C19.9223 31.8036 20.1691 31.774 20.445 31.7592C20.7209 31.7443 21.0041 31.7221 21.2945 31.7147C21.5849 31.7073 21.8826 31.7073 22.1875 31.7221C22.4924 31.7369 22.7828 31.7517 23.066 31.774L22.173 33.3379C21.9116 33.3304 21.643 33.3304 21.3671 33.323C21.0984 33.3156 20.8298 33.323 20.5612 33.3304C20.2998 33.3379 20.0457 33.3527 19.8061 33.3675C19.5665 33.3823 19.3414 33.412 19.1309 33.449L18.7388 34.1383L20.9605 35.4576L20.1619 36.8584L14.1576 33.3008C14.2738 32.9599 14.4117 32.6189 14.5714 32.278C14.7457 31.937 14.8981 31.6406 15.0433 31.3812ZM16.2631 31.9963C16.205 32.1001 16.1542 32.189 16.1179 32.278C16.0816 32.3595 16.038 32.441 16.009 32.5152L17.6643 33.4935L17.8894 33.1007C18.1871 32.5744 18.3395 32.1594 18.3395 31.8555C18.3395 31.5516 18.1871 31.307 17.8749 31.1218C17.5772 30.9439 17.3013 30.9365 17.0399 31.0921C16.7713 31.2403 16.5172 31.5442 16.2631 31.9963Z" fill="white"/>
<path d="M24.6196 29.9433C23.988 29.7654 23.3418 29.5727 22.6811 29.3578C22.0205 29.1429 21.3743 28.9279 20.7426 28.7056C20.111 28.4832 19.5084 28.2609 18.9421 28.0385C18.3758 27.8162 17.8748 27.616 17.4392 27.4382L18.5791 26.0818C18.9711 26.2523 19.3995 26.4302 19.8642 26.6155C20.3288 26.8008 20.7862 26.986 21.2509 27.1713C21.7155 27.3492 22.1584 27.5271 22.5795 27.6902C23.0006 27.8532 23.3781 27.9866 23.7049 28.0904C23.5596 27.7791 23.3709 27.4233 23.1531 27.0157C22.928 26.6081 22.6957 26.1856 22.4561 25.7483C22.2092 25.311 21.9624 24.8663 21.7083 24.429C21.4542 23.9917 21.2218 23.5841 20.9968 23.2061L22.1003 21.9016C22.3399 22.3241 22.6085 22.7984 22.9062 23.3395C23.2039 23.8805 23.5088 24.4512 23.821 25.0516C24.1332 25.6519 24.4454 26.2745 24.7503 26.9045C25.0553 27.5419 25.3457 28.1571 25.607 28.7649L24.6196 29.9433Z" fill="white"/>
<path d="M23.1749 21.0641L24.3656 19.9968L29.0267 25.3926L27.836 26.4598L23.1749 21.0641Z" fill="white"/>
<path d="M32.8674 22.6724C32.8746 22.7317 32.8819 22.791 32.8964 22.8429C32.9037 22.8948 32.9182 22.9392 32.9254 22.9763C33.165 22.9466 33.3611 22.9689 33.5135 23.043C33.666 23.1171 33.7822 23.2283 33.8693 23.3617C34.0508 23.6359 34.0798 23.9176 33.9637 24.2066C33.8475 24.4957 33.6152 24.7625 33.2667 24.9997C33.1432 25.0886 33.0126 25.1627 32.8746 25.222C32.7367 25.2887 32.5987 25.348 32.4535 25.3999L32.1123 24.5476C32.1558 24.5327 32.243 24.5031 32.3664 24.4586C32.4898 24.4142 32.5987 24.3549 32.7004 24.2882C32.7802 24.2363 32.8383 24.1696 32.8746 24.0955C32.9109 24.0213 32.9109 23.9472 32.8601 23.8583C32.8165 23.7842 32.7512 23.7397 32.6568 23.7249C32.5624 23.71 32.439 23.7323 32.2865 23.7916L32.1704 23.836C32.1486 23.7545 32.1268 23.6508 32.105 23.5396C32.0832 23.4284 32.0615 23.3172 32.0397 23.2135C31.1902 23.6582 30.3916 23.7619 29.6365 23.5173C28.8814 23.2728 28.2135 22.7021 27.6109 21.7978C27.2842 21.3087 27.0664 20.8121 26.9647 20.3229C26.8631 19.8337 26.8486 19.3594 26.9357 18.9147C27.0228 18.4626 27.2043 18.0475 27.4729 17.6547C27.7488 17.2619 28.0973 16.9209 28.5257 16.6244C28.7725 16.454 29.0121 16.3206 29.2372 16.2168C29.4623 16.113 29.6656 16.0389 29.8543 15.9796C30.0358 15.9203 30.1956 15.8833 30.3335 15.8685C30.4715 15.8536 30.5658 15.8388 30.6312 15.8388L30.9724 17.1803C30.7256 17.21 30.4642 17.2693 30.181 17.3656C29.8979 17.462 29.6002 17.6176 29.3025 17.8251C29.0993 17.966 28.925 18.1364 28.7798 18.3366C28.6346 18.5367 28.533 18.7664 28.4894 19.0184C28.4386 19.2704 28.4531 19.5521 28.5184 19.856C28.591 20.1598 28.7362 20.4785 28.9686 20.8269C29.1501 21.1011 29.3534 21.3383 29.5639 21.5384C29.7817 21.7385 30.0141 21.8719 30.2609 21.9535C30.5078 22.035 30.7691 22.0498 31.0523 22.0054C31.3354 21.9609 31.6258 21.8275 31.9235 21.6199C32.1123 21.4865 32.2793 21.3605 32.4172 21.2271C32.5552 21.1011 32.6713 20.9825 32.7657 20.8639C32.8601 20.7528 32.94 20.6416 33.0053 20.5378C33.0706 20.4341 33.1287 20.3451 33.1723 20.2562L34.2468 21.0789C34.1524 21.2938 33.9927 21.5384 33.7604 21.8201C33.5135 22.1165 33.2231 22.3982 32.8674 22.6724Z" fill="white"/>
<path d="M39.3217 15.3274C39.5613 15.8907 39.6847 16.4244 39.7065 16.9284C39.7283 17.4324 39.6484 17.8845 39.4815 18.2995C39.3145 18.7146 39.0676 19.0852 38.7336 19.4039C38.3997 19.7226 38.0076 19.982 37.5502 20.1821C37.1073 20.3748 36.6572 20.486 36.2071 20.5156C35.7569 20.5453 35.3213 20.4786 34.9075 20.3155C34.4936 20.1525 34.1088 19.9005 33.7603 19.5447C33.4118 19.1889 33.1142 18.7294 32.8818 18.1661C32.6495 17.6028 32.5188 17.0618 32.5116 16.5578C32.5043 16.0538 32.5842 15.5868 32.7584 15.1644C32.9327 14.7419 33.1795 14.3713 33.5062 14.0526C33.8329 13.7339 34.2105 13.4819 34.6388 13.2892C35.0817 13.0965 35.5246 12.9853 35.982 12.9557C36.4321 12.926 36.8677 13.0001 37.2888 13.1632C37.7027 13.3263 38.0875 13.5857 38.436 13.9414C38.7917 14.3046 39.0821 14.7641 39.3217 15.3274ZM34.3847 17.4991C34.5227 17.8252 34.6824 18.0994 34.8712 18.3218C35.0599 18.5441 35.2632 18.722 35.4883 18.848C35.7134 18.974 35.9529 19.0333 36.2071 19.0481C36.4612 19.0629 36.7225 19.0036 36.9984 18.8776C37.2671 18.759 37.4849 18.6034 37.6591 18.4107C37.8334 18.218 37.9495 17.9882 38.0149 17.7362C38.0802 17.4842 38.102 17.21 38.0657 16.9135C38.0367 16.6171 37.9495 16.3132 37.8116 15.9871C37.6736 15.661 37.5139 15.3867 37.3251 15.157C37.1364 14.9272 36.9258 14.7493 36.7008 14.6307C36.4757 14.5121 36.2361 14.4454 35.9747 14.438C35.7134 14.4306 35.452 14.4825 35.1906 14.6011C34.9147 14.7197 34.6969 14.8827 34.5299 15.0754C34.3629 15.2681 34.2468 15.4979 34.1814 15.7499C34.1161 16.0019 34.0943 16.2761 34.1306 16.5726C34.1669 16.8765 34.254 17.1804 34.3847 17.4991Z" fill="white"/>
<path d="M48.0413 17.3063C47.4823 16.5503 46.887 15.8166 46.2553 15.0902C45.6237 14.3713 44.9702 13.6968 44.2805 13.0742L44.9049 17.7436L43.3512 17.9585L42.4001 10.8359L43.6779 10.658C43.932 10.8507 44.2152 11.0953 44.5274 11.3918C44.8395 11.6808 45.159 11.9995 45.4857 12.333C45.8124 12.6666 46.1464 13.0149 46.4731 13.3781C46.7998 13.7413 47.112 14.0896 47.4024 14.4306L46.8434 10.2281L48.4044 10.0132L49.3555 17.1358L48.0413 17.3063Z" fill="white"/>
<path d="M55.0621 17.4101C54.9968 17.1581 54.9314 16.8913 54.8588 16.6244C54.7862 16.3576 54.7136 16.0908 54.641 15.824L51.8966 15.6461C51.795 15.9055 51.6861 16.1575 51.5772 16.4169C51.4683 16.6763 51.3739 16.9209 51.2795 17.1655L49.6387 17.0617C49.9509 16.3057 50.2485 15.609 50.5244 14.9642C50.8003 14.3268 51.0762 13.719 51.3376 13.1558C51.599 12.5925 51.8603 12.0514 52.1144 11.5474C52.3685 11.0434 52.6299 10.5468 52.8985 10.0651L54.4014 10.1614C54.6047 10.6728 54.8007 11.1991 54.9895 11.7327C55.1783 12.2664 55.3743 12.8371 55.5631 13.43C55.7518 14.0229 55.9479 14.6603 56.1439 15.3274C56.3399 16.0019 56.5505 16.7282 56.7683 17.5213L55.0621 17.4101ZM55.6575 8.38261C55.6139 8.48638 55.5486 8.59755 55.4687 8.71614C55.3888 8.83473 55.2944 8.9459 55.1855 9.04967C55.0766 9.15343 54.9605 9.23496 54.8225 9.29425C54.6918 9.35355 54.5466 9.38319 54.3942 9.36837C54.2707 9.36096 54.1618 9.33131 54.0602 9.28684C53.9585 9.24237 53.8569 9.1979 53.7553 9.14602C53.6536 9.09414 53.5592 9.04967 53.4576 9.0052C53.3559 8.96073 53.2543 8.93849 53.1454 8.93108C53.0074 8.92367 52.8985 8.96073 52.8042 9.04226C52.7098 9.12378 52.6299 9.22755 52.5718 9.33872L51.8603 8.79026C51.9111 8.68649 51.9692 8.57532 52.0491 8.45673C52.129 8.33814 52.2233 8.22697 52.3322 8.1232C52.4411 8.02685 52.5573 7.94532 52.6953 7.87862C52.8332 7.81191 52.9711 7.78968 53.1309 7.8045C53.2543 7.81191 53.3632 7.84156 53.4648 7.88603C53.5665 7.9305 53.6681 7.98238 53.7698 8.03426C53.8714 8.08614 53.9658 8.13061 54.0602 8.17508C54.1546 8.21956 54.2635 8.24179 54.3796 8.2492C54.5176 8.25661 54.6265 8.21956 54.7209 8.13803C54.8153 8.0565 54.8951 7.95273 54.9532 7.84156L55.6575 8.38261ZM53.5084 11.7401C53.4648 11.8439 53.4068 11.9773 53.3269 12.1552C53.247 12.3331 53.1599 12.5332 53.0583 12.7629C52.9566 12.9927 52.8405 13.2447 52.717 13.5189C52.5936 13.7932 52.4629 14.0822 52.3322 14.3861L54.3433 14.5195C54.2562 14.2008 54.1691 13.8969 54.0892 13.6079C54.0021 13.3188 53.9295 13.052 53.8496 12.8148C53.777 12.5702 53.7044 12.3627 53.6464 12.1774C53.5883 11.9921 53.5447 11.8439 53.5084 11.7401Z" fill="white"/>
<path d="M64.1665 15.8537C64.014 16.4466 63.789 16.9506 63.4913 17.3508C63.2009 17.7511 62.8596 18.0698 62.4821 18.2921C62.0973 18.5145 61.6835 18.6479 61.2261 18.6849C60.7687 18.722 60.304 18.6775 59.8248 18.5515C59.3602 18.4255 58.9391 18.2254 58.5688 17.9586C58.1985 17.6918 57.9009 17.3656 57.6685 16.9728C57.4435 16.5874 57.2983 16.1427 57.2402 15.6387C57.1821 15.1421 57.2329 14.5937 57.3854 14.0007C57.5378 13.4078 57.7702 12.9112 58.0751 12.511C58.38 12.1107 58.7213 11.7994 59.1133 11.5771C59.5054 11.3547 59.9265 11.2213 60.3766 11.1843C60.8268 11.1398 61.2769 11.1843 61.727 11.3103C62.1917 11.4363 62.6128 11.6364 62.9831 11.9032C63.3533 12.17 63.651 12.4961 63.8833 12.889C64.1157 13.2818 64.2536 13.7265 64.3117 14.2231C64.3698 14.7197 64.319 15.2607 64.1665 15.8537ZM58.9681 14.4306C58.881 14.7715 58.8374 15.0902 58.852 15.3867C58.8592 15.6832 58.9173 15.95 59.0189 16.1872C59.1206 16.4244 59.2658 16.6319 59.4618 16.7949C59.6579 16.9654 59.8974 17.084 60.1879 17.1655C60.471 17.2396 60.7396 17.2619 60.9937 17.2174C61.2479 17.1729 61.4802 17.0692 61.6835 16.9135C61.8868 16.7579 62.0683 16.5578 62.2207 16.3058C62.3732 16.0538 62.4966 15.7573 62.5838 15.4164C62.6709 15.0754 62.7144 14.7567 62.7072 14.4528C62.6999 14.149 62.6418 13.8821 62.5402 13.645C62.4385 13.4078 62.2861 13.2003 62.0901 13.0298C61.894 12.8593 61.6544 12.7407 61.3713 12.6592C61.0809 12.5777 60.8122 12.5629 60.5654 12.6147C60.3113 12.6666 60.0862 12.763 59.8829 12.9186C59.6796 13.0743 59.4981 13.2818 59.3457 13.5338C59.1932 13.7858 59.0552 14.0971 58.9681 14.4306Z" fill="white"/>
<path d="M67.5425 21.5681C67.6006 20.901 67.666 20.2191 67.7531 19.515C67.8402 18.8109 67.9346 18.1216 68.0362 17.4472C68.1379 16.7727 68.2468 16.1279 68.3557 15.5201C68.4646 14.9124 68.5662 14.3713 68.6679 13.9044L70.178 14.8012C70.0837 15.2311 69.9893 15.6906 69.8949 16.1872C69.8005 16.6837 69.7061 17.1803 69.6117 17.6769C69.5246 18.1735 69.4302 18.6553 69.3504 19.1074C69.2705 19.5669 69.2051 19.9671 69.1688 20.3081C69.4375 20.1005 69.7497 19.856 70.0982 19.5595C70.4467 19.263 70.8169 18.9517 71.1945 18.6256C71.572 18.2995 71.9495 17.9734 72.3271 17.6399C72.7046 17.3063 73.0531 16.995 73.3726 16.706L74.8319 17.5732C74.4689 17.8844 74.055 18.2402 73.5904 18.6404C73.1257 19.0333 72.632 19.4483 72.1093 19.8708C71.5865 20.2933 71.042 20.7157 70.4902 21.1382C69.9384 21.5607 69.3867 21.9609 68.8494 22.3315L67.5425 21.5681Z" fill="white"/>
<path d="M74.5488 26.7711C74.6504 26.5265 74.7448 26.2745 74.8464 26.0151C74.9481 25.7557 75.0425 25.4963 75.1441 25.2369L73.0532 23.4136C72.8208 23.5544 72.5812 23.6952 72.3489 23.836C72.1166 23.9769 71.8842 24.1177 71.6737 24.2585L70.4177 23.169C71.1147 22.7539 71.7608 22.3759 72.3562 22.035C72.9515 21.6941 73.5251 21.3754 74.0696 21.0863C74.6141 20.7972 75.1369 20.523 75.6306 20.271C76.1315 20.019 76.6325 19.7818 77.1262 19.5595L78.2733 20.5527C78.1354 21.0863 77.9829 21.6274 77.8232 22.1684C77.6634 22.7095 77.4819 23.2876 77.2859 23.8805C77.0899 24.4735 76.8721 25.1035 76.6397 25.7557C76.4074 26.4079 76.1388 27.1268 75.8484 27.8903L74.5488 26.7711ZM76.6325 21.2716C76.5381 21.3309 76.4074 21.3976 76.2404 21.4939C76.0734 21.5903 75.8847 21.6941 75.6669 21.8127C75.4491 21.9312 75.2095 22.0646 74.9481 22.2129C74.6867 22.3537 74.4108 22.5094 74.1349 22.6724L75.6669 24.0065C75.783 23.6952 75.8919 23.3988 75.9936 23.1171C76.0952 22.8355 76.1896 22.5761 76.2695 22.3315C76.3493 22.0943 76.4219 21.8794 76.48 21.7015C76.5526 21.5236 76.6034 21.3828 76.6325 21.2716ZM79.7907 19.4038L77.6054 19.3964L77.4747 18.4551L79.6383 18.129L79.7907 19.4038Z" fill="white"/>
<path d="M80.0303 31.0255L78.9848 31.9149L75.979 28.2164L81.4025 23.6212L82.4116 24.8663L78.0409 28.5722L80.0303 31.0255Z" fill="white"/>
<path d="M85.1052 28.4832L85.9692 29.8396L80.0666 33.7604L79.2026 32.404L85.1052 28.4832Z" fill="white"/>
<path d="M86.521 38.8373C85.9692 39.0968 85.4464 39.245 84.9527 39.2598C84.459 39.2746 84.0089 39.1931 83.5878 39.0004C83.1667 38.8077 82.7892 38.5112 82.4407 38.111C82.0922 37.7108 81.7872 37.2216 81.5259 36.6435C81.4024 36.3767 81.279 36.0654 81.1338 35.7096C80.9886 35.3538 80.8797 34.9833 80.7926 34.6127L87.0147 31.6554C87.2325 31.9667 87.4358 32.3002 87.6245 32.656C87.8133 33.0117 87.9658 33.323 88.0892 33.5824C88.3433 34.1383 88.5103 34.6794 88.5974 35.1908C88.6845 35.7022 88.67 36.184 88.5538 36.6361C88.4377 37.0882 88.2126 37.4958 87.8859 37.8738C87.5519 38.237 87.1018 38.5631 86.521 38.8373ZM82.5568 35.5614C82.5859 35.6355 82.6149 35.717 82.6512 35.806C82.6875 35.8949 82.7383 36.0061 82.7964 36.1321C83.1304 36.8658 83.5587 37.3254 84.0815 37.5032C84.6042 37.6885 85.1851 37.6218 85.824 37.3179C86.4919 36.9992 86.9203 36.5916 87.109 36.0876C87.2978 35.5836 87.2252 34.9684 86.8912 34.2347C86.8477 34.1309 86.7968 34.0346 86.746 33.9234C86.6952 33.8196 86.6444 33.7233 86.5863 33.6343L82.5568 35.5614Z" fill="white"/>
<path d="M88.4885 46.8717C87.9004 47.0125 87.3632 47.0421 86.8767 46.968C86.3903 46.8939 85.9619 46.7382 85.5916 46.5011C85.2214 46.2639 84.9092 45.9452 84.6623 45.5524C84.4155 45.1595 84.234 44.7148 84.1251 44.2257C84.0162 43.7439 83.9944 43.277 84.0452 42.8174C84.1033 42.3579 84.2412 41.9355 84.4735 41.5426C84.7059 41.1572 85.0181 40.8163 85.4247 40.5272C85.8312 40.2382 86.3249 40.0306 86.913 39.8898C87.5011 39.749 88.0384 39.7268 88.5248 39.8083C89.0112 39.8898 89.4469 40.0603 89.8244 40.3049C90.2019 40.5495 90.5141 40.8682 90.761 41.2536C91.0078 41.639 91.1821 42.0615 91.291 42.5284C91.3999 43.0102 91.4289 43.4771 91.3708 43.9366C91.3128 44.3961 91.1676 44.8186 90.9425 45.2114C90.7102 45.5968 90.3907 45.9378 89.9841 46.2268C89.5703 46.5233 89.0766 46.7382 88.4885 46.8717ZM87.276 41.5278C86.9421 41.6093 86.6444 41.7205 86.3975 41.8687C86.1434 42.017 85.9401 42.1949 85.7804 42.395C85.6207 42.5951 85.5118 42.8249 85.461 43.0843C85.4101 43.3437 85.4101 43.6105 85.4827 43.907C85.5481 44.196 85.657 44.448 85.8167 44.6556C85.9764 44.8631 86.1725 45.0261 86.3975 45.1373C86.6299 45.2485 86.8912 45.3152 87.1816 45.3374C87.4721 45.3597 87.7842 45.33 88.1182 45.2485C88.4522 45.167 88.7499 45.0558 89.004 44.9075C89.2581 44.7593 89.4686 44.5814 89.6284 44.3813C89.7881 44.1738 89.8897 43.944 89.9478 43.692C89.9986 43.4326 89.9914 43.1584 89.926 42.8693C89.8607 42.5729 89.7445 42.3209 89.5848 42.1207C89.4251 41.9206 89.229 41.7576 88.9967 41.6464C88.7644 41.5352 88.503 41.4685 88.2126 41.4463C87.9149 41.4166 87.61 41.4463 87.276 41.5278Z" fill="white"/>
<path d="M19.9005 59.7458C20.0675 60.0571 20.1982 60.3684 20.2853 60.6871C20.3507 60.9317 20.387 61.1688 20.3797 61.3838C20.3797 61.6061 20.3361 61.7988 20.249 61.9841C20.1619 62.162 20.0385 62.3251 19.8642 62.4585C19.69 62.5919 19.4649 62.7031 19.189 62.7772C18.9059 62.8587 18.659 62.8809 18.4412 62.8587C18.2234 62.8365 18.0274 62.7698 17.8676 62.6512C17.7079 62.5326 17.5627 62.3844 17.4538 62.1991C17.3376 62.0064 17.2505 61.784 17.1779 61.532L17.098 61.2355L15.3047 61.7469L15.1305 61.1021L19.9005 59.7458ZM17.6498 61.0873L17.7224 61.3467C17.766 61.5098 17.8241 61.6506 17.8967 61.7692C17.9693 61.8878 18.0564 61.9841 18.158 62.0508C18.2597 62.1175 18.3831 62.1546 18.5211 62.1694C18.659 62.1842 18.826 62.162 19.0075 62.1101C19.1963 62.0582 19.3415 61.9841 19.4576 61.9026C19.5738 61.8211 19.6537 61.7247 19.7117 61.621C19.7626 61.5172 19.7916 61.3986 19.7916 61.2726C19.7916 61.1466 19.7698 61.0058 19.7335 60.865C19.6972 60.739 19.6609 60.6278 19.6174 60.5314L17.6498 61.0873Z" fill="#151253"/>
<path d="M21.3816 64.1705C21.084 64.4151 20.7863 64.6597 20.4814 64.9043C20.1764 65.1489 19.857 65.4009 19.5157 65.6529C19.1745 65.9049 18.8115 66.1717 18.4267 66.4385C18.0419 66.7053 17.6208 66.9944 17.1707 67.2983L16.9311 66.6757C17.1198 66.5571 17.3086 66.4385 17.4901 66.3274C17.6716 66.2162 17.8604 66.0902 18.0419 65.9716L17.4683 64.4596C17.2505 64.4892 17.04 64.5263 16.8222 64.5708C16.6044 64.6152 16.3938 64.6523 16.176 64.6968L15.9509 64.0964C16.4809 64.0001 16.9819 63.926 17.4466 63.8667C17.9112 63.8074 18.3541 63.7481 18.7679 63.7036C19.189 63.6591 19.5883 63.6221 19.9731 63.5924C20.3579 63.5628 20.7427 63.5405 21.1275 63.5183L21.3816 64.1705ZM20.5612 64.1112C20.1401 64.1483 19.7263 64.1854 19.3052 64.2298C18.8841 64.2743 18.463 64.3262 18.0274 64.3855L18.5066 65.6381C18.8696 65.3861 19.2181 65.1341 19.5593 64.8821C19.8933 64.6301 20.2272 64.3707 20.5612 64.1112Z" fill="#151253"/>
<path d="M22.0205 65.9123C22.2529 66.1791 22.4344 66.4608 22.5796 66.7424C22.6957 66.9722 22.7756 67.1871 22.8192 67.402C22.8627 67.617 22.8627 67.8171 22.8119 68.0024C22.7683 68.1951 22.674 68.373 22.536 68.536C22.3981 68.6991 22.202 68.8473 21.9552 68.9807C21.643 69.1438 21.3671 69.2179 21.113 69.1957C20.8589 69.1734 20.6338 69.0919 20.4305 68.9363C20.3724 69.0326 20.2853 69.166 20.1837 69.3217C20.0748 69.4773 19.9586 69.6478 19.8207 69.8331C19.6827 70.011 19.5448 70.1963 19.3996 70.3741C19.2544 70.552 19.1091 70.7225 18.9639 70.8707L18.659 70.2704C18.7607 70.1518 18.8768 70.0184 19.0075 69.8553C19.1309 69.6997 19.2616 69.5366 19.3778 69.3736C19.5012 69.2105 19.6174 69.0474 19.719 68.8918C19.8207 68.7362 19.915 68.5953 19.9876 68.4842C19.9441 68.4175 19.9005 68.3507 19.857 68.2766C19.8134 68.2025 19.7771 68.1284 19.7335 68.0543L19.6464 67.8912L17.9039 68.8103L17.6135 68.2322L22.0205 65.9123ZM20.1256 67.6466L20.249 67.8986C20.4015 68.2025 20.5902 68.3952 20.8081 68.4916C21.0259 68.5805 21.3018 68.5434 21.6285 68.3656C21.7955 68.2766 21.9261 68.1803 22.0205 68.0765C22.1149 67.9727 22.173 67.869 22.202 67.7578C22.2311 67.6466 22.2311 67.528 22.2093 67.402C22.1875 67.276 22.1367 67.15 22.0714 67.0166C22.0133 66.9055 21.9552 66.8017 21.8898 66.7128L20.1256 67.6466Z" fill="#151253"/>
<path d="M24.6269 70.3815C24.3873 70.6854 24.1477 70.9893 23.9009 71.2932C23.654 71.5971 23.3927 71.9158 23.1168 72.2345C22.8409 72.5532 22.5432 72.8941 22.2238 73.2425C21.9043 73.5908 21.5558 73.9614 21.1783 74.3542L20.8153 73.7983C20.975 73.6427 21.1347 73.4871 21.2872 73.3314C21.4396 73.1758 21.5994 73.0201 21.7518 72.8645L20.8733 71.5155C20.6701 71.5971 20.4668 71.6786 20.2707 71.7675C20.0747 71.8565 19.8714 71.9454 19.6681 72.0344L19.3196 71.5007C19.8206 71.2932 20.2853 71.1079 20.7281 70.9448C21.171 70.7818 21.5849 70.6335 21.9842 70.4927C22.3835 70.3519 22.7683 70.2333 23.1386 70.1221C23.5088 70.011 23.8791 69.8998 24.2494 69.796L24.6269 70.3815ZM23.8138 70.5001C23.4145 70.6261 23.0151 70.7595 22.6158 70.893C22.2165 71.0264 21.8099 71.1746 21.4033 71.3228L22.1366 72.442C22.4343 72.1159 22.7247 71.7972 23.0006 71.4711C23.2692 71.1524 23.5379 70.8263 23.8138 70.5001Z" fill="#151253"/>
<path d="M24.489 77.2745C24.6777 76.9558 24.852 76.6519 25.0117 76.3481C25.1714 76.0516 25.3239 75.7625 25.4691 75.4957C25.6071 75.2289 25.7377 74.9769 25.8467 74.7545C25.9556 74.5248 26.0499 74.3247 26.1225 74.1468C25.912 74.3247 25.6797 74.5248 25.4256 74.7545C25.1787 74.9769 24.9173 75.2066 24.6632 75.4438C24.4019 75.681 24.1405 75.9182 23.8791 76.1553C23.6177 76.3925 23.3709 76.6297 23.1386 76.8446L22.7102 76.3851C23.0369 76.0886 23.3636 75.7922 23.6976 75.4957C24.0316 75.1992 24.3583 74.9028 24.685 74.6211C25.0117 74.3395 25.3312 74.0652 25.6434 73.7984C25.9556 73.5316 26.2532 73.287 26.5436 73.0573L26.9865 73.5316C26.8994 73.7391 26.7832 73.9911 26.6525 74.2728C26.5219 74.5544 26.3767 74.8509 26.2315 75.1548C26.079 75.4586 25.9265 75.7625 25.7741 76.059C25.6216 76.3555 25.4764 76.6297 25.3384 76.8669C25.578 76.7409 25.8539 76.6075 26.1516 76.4592C26.4493 76.311 26.7542 76.1702 27.0591 76.0293C27.3641 75.8885 27.6617 75.7625 27.9449 75.6365C28.228 75.5105 28.4749 75.4142 28.6854 75.3326L29.1283 75.8144C28.8887 76.0961 28.6274 76.3851 28.3515 76.689C28.0756 76.9929 27.7852 77.3042 27.4947 77.6229C27.1971 77.9416 26.8921 78.2603 26.5799 78.579C26.2678 78.8977 25.9556 79.2164 25.6506 79.5351L25.2223 79.0756C25.4473 78.8458 25.6869 78.6012 25.941 78.3492C26.1951 78.0972 26.442 77.8378 26.6961 77.5784C26.943 77.319 27.1898 77.067 27.4221 76.8224C27.6545 76.5778 27.8723 76.3481 28.061 76.1331C27.9449 76.185 27.7997 76.2517 27.6182 76.3332C27.4439 76.4148 27.2552 76.5037 27.0519 76.6C26.8486 76.6964 26.638 76.8002 26.4275 76.8965C26.2097 77.0003 26.0064 77.0966 25.8104 77.2004C25.6143 77.2968 25.4328 77.3857 25.2731 77.4746C25.1134 77.5562 24.9827 77.6229 24.8883 77.6822L24.489 77.2745Z" fill="#151253"/>
<path d="M30.9507 80.6765C30.7039 80.9878 30.457 81.2546 30.2029 81.4621C29.9488 81.6771 29.6874 81.8253 29.4333 81.9142C29.1719 82.0032 28.9178 82.0254 28.6637 81.9809C28.4096 81.9365 28.1627 81.8179 27.9232 81.6252C27.6836 81.4325 27.5166 81.2101 27.4222 80.9655C27.3278 80.7209 27.2915 80.4615 27.3206 80.1873C27.3496 79.9057 27.4367 79.6166 27.5819 79.3201C27.7271 79.0162 27.9232 78.7124 28.1627 78.3937C28.4096 78.0824 28.6564 77.8155 28.9178 77.608C29.1792 77.3931 29.4333 77.2448 29.6947 77.1559C29.956 77.067 30.2102 77.0447 30.4643 77.0818C30.7184 77.1263 30.9652 77.2374 31.2048 77.4376C31.4444 77.6303 31.6114 77.8526 31.7058 78.0972C31.8002 78.3418 31.8365 78.6012 31.8074 78.8828C31.7784 79.1571 31.6913 79.4535 31.546 79.7574C31.4008 80.0613 31.1976 80.3652 30.9507 80.6765ZM30.4062 80.2392C30.5949 79.9946 30.7547 79.7648 30.8781 79.5351C31.0015 79.3127 31.0886 79.0978 31.1395 78.8977C31.183 78.6975 31.183 78.5122 31.1395 78.3418C31.0959 78.1713 30.9943 78.0231 30.8418 77.8971C30.6893 77.7711 30.5223 77.7044 30.3554 77.697C30.1811 77.6895 30.0069 77.734 29.8254 77.823C29.6439 77.9119 29.4623 78.0453 29.2663 78.2158C29.0775 78.3937 28.8888 78.6012 28.7 78.8458C28.5112 79.0904 28.3515 79.3275 28.2281 79.5499C28.1047 79.7797 28.0175 79.9872 27.974 80.1873C27.9304 80.3874 27.9304 80.5653 27.974 80.7358C28.0175 80.9062 28.1192 81.0471 28.2789 81.1731C28.4386 81.2991 28.5984 81.3658 28.7654 81.3732C28.9323 81.3806 29.1066 81.3435 29.2881 81.2546C29.4696 81.1656 29.6511 81.0322 29.8399 80.8618C30.0286 80.6913 30.2174 80.4764 30.4062 80.2392Z" fill="#151253"/>
<path d="M34.9875 80.2688L34.6825 80.7506L33.7387 80.1354L31.321 83.9747L30.7692 83.6115L33.1869 79.7722L32.2503 79.1571L32.5553 78.6753L34.9875 80.2688Z" fill="#151253"/>
<path d="M37.0711 84.2489C36.8968 84.6047 36.7008 84.916 36.4903 85.1754C36.2797 85.4348 36.0619 85.6349 35.8223 85.7758C35.5827 85.9166 35.3431 85.9907 35.0818 86.0055C34.8276 86.0129 34.559 85.9536 34.2904 85.8128C34.0145 85.672 33.8112 85.4941 33.666 85.2718C33.5208 85.0494 33.4337 84.8048 33.4046 84.5306C33.3756 84.2564 33.4046 83.9525 33.4845 83.6264C33.5643 83.3002 33.695 82.9593 33.8693 82.6035C34.0435 82.2478 34.2396 81.9365 34.4501 81.6771C34.6607 81.4177 34.8857 81.2101 35.1181 81.0693C35.3504 80.9285 35.5972 80.8544 35.8586 80.8396C36.12 80.8247 36.3813 80.8914 36.6572 81.0323C36.9331 81.1731 37.1364 81.351 37.2816 81.5733C37.4268 81.7957 37.5067 82.0402 37.5357 82.3219C37.5648 82.6035 37.5357 82.9 37.4486 83.2261C37.376 83.5522 37.2453 83.8932 37.0711 84.2489ZM36.4467 83.9302C36.5846 83.6486 36.6935 83.3892 36.7734 83.1446C36.8533 82.9 36.8968 82.6702 36.8968 82.4627C36.8968 82.2552 36.8678 82.0773 36.7879 81.9217C36.7081 81.766 36.5846 81.64 36.4031 81.5511C36.2289 81.4621 36.0546 81.4251 35.8876 81.4547C35.7207 81.4844 35.5537 81.5585 35.3939 81.6845C35.2342 81.8105 35.0818 81.981 34.9293 82.1885C34.7768 82.396 34.6316 82.6406 34.4937 82.9222C34.3557 83.1965 34.2468 83.4633 34.1742 83.7079C34.0944 83.9525 34.0581 84.1822 34.0508 84.3823C34.0508 84.5825 34.0871 84.7678 34.167 84.916C34.2468 85.0716 34.3702 85.1902 34.5518 85.2866C34.726 85.3755 34.9002 85.4126 35.0672 85.3829C35.2342 85.3533 35.4012 85.2792 35.5537 85.1606C35.7134 85.0346 35.8659 84.8715 36.0111 84.6566C36.1563 84.4416 36.3087 84.2119 36.4467 83.9302Z" fill="#151253"/>
<path d="M38.8499 82.2922C39.1983 82.3293 39.5178 82.4034 39.8155 82.5146C40.0551 82.6035 40.2584 82.7073 40.4253 82.8333C40.5996 82.9593 40.7303 83.1075 40.8247 83.278C40.919 83.4485 40.9699 83.6412 40.9771 83.8635C40.9844 84.0785 40.9408 84.323 40.8464 84.5973C40.723 84.9308 40.5705 85.1754 40.3673 85.3385C40.1712 85.5015 39.9462 85.5904 39.692 85.6201C39.7138 85.7313 39.7356 85.8869 39.7647 86.0796C39.7937 86.2723 39.8155 86.4799 39.8373 86.7022C39.859 86.9246 39.8736 87.1617 39.8808 87.3915C39.8953 87.6287 39.8953 87.851 39.8881 88.0585L39.271 87.8288C39.271 87.6731 39.2637 87.4878 39.2564 87.2877C39.2492 87.0876 39.2274 86.8801 39.2129 86.6726C39.1983 86.465 39.1693 86.2723 39.1475 86.0796C39.1257 85.8869 39.0967 85.7239 39.0749 85.5905C39.0023 85.5756 38.9225 85.5534 38.8426 85.5312C38.7627 85.5089 38.6829 85.4793 38.6103 85.4496L38.4433 85.3829L37.7535 87.2655L37.1509 87.0431L38.8499 82.2922ZM38.6103 84.8715L38.8716 84.9679C39.1838 85.0865 39.4525 85.1013 39.6703 85.0197C39.8881 84.9382 40.0623 84.7159 40.193 84.3601C40.2584 84.1822 40.2874 84.0192 40.2947 83.8783C40.2947 83.7375 40.2656 83.6189 40.2148 83.5152C40.164 83.4114 40.0841 83.3225 39.9825 83.2483C39.8808 83.1742 39.7647 83.1149 39.6267 83.0631C39.5105 83.0186 39.3944 82.9815 39.2927 82.9593L38.6103 84.8715Z" fill="#151253"/>
<path d="M42.2113 83.3743L42.843 83.5522L41.5071 88.5032L40.8754 88.3254L42.2113 83.3743Z" fill="#151253"/>
<path d="M43.5764 88.5329C43.8305 88.5848 44.0483 88.5551 44.2153 88.4365C44.3823 88.3179 44.4912 88.1401 44.542 87.8881C44.571 87.7547 44.571 87.6361 44.5492 87.5249C44.5275 87.4137 44.4912 87.3099 44.4331 87.2136C44.3823 87.1172 44.3169 87.0283 44.237 86.9394C44.1572 86.8504 44.0773 86.7689 43.9975 86.6799C43.9031 86.5836 43.8087 86.4724 43.707 86.3612C43.6054 86.2501 43.5183 86.1241 43.4457 85.9907C43.3731 85.8572 43.315 85.7016 43.2859 85.5385C43.2569 85.3681 43.2569 85.1828 43.3005 84.9753C43.3368 84.7751 43.4094 84.5973 43.511 84.4416C43.6127 84.2934 43.7361 84.1674 43.8813 84.0784C44.0265 83.9895 44.1862 83.9302 44.3677 83.9006C44.5492 83.8709 44.738 83.8783 44.934 83.9154C45.1228 83.9524 45.2971 84.0117 45.4495 84.0933C45.602 84.1748 45.7254 84.2637 45.8198 84.3527L45.5221 84.827C45.435 84.7381 45.3406 84.664 45.2317 84.6047C45.1228 84.5454 45.0066 84.5009 44.876 84.4787C44.6436 84.4342 44.4476 84.4564 44.2806 84.5602C44.1136 84.6565 44.0047 84.8344 43.9612 85.079C43.9321 85.2124 43.9321 85.3384 43.9612 85.4496C43.9829 85.5608 44.0265 85.6645 44.0846 85.7609C44.1427 85.8572 44.2153 85.9536 44.2951 86.0425C44.3823 86.1315 44.4694 86.2204 44.5638 86.3168C44.6581 86.4131 44.7525 86.5169 44.8542 86.6281C44.9486 86.7392 45.0357 86.8578 45.101 86.9912C45.1736 87.1247 45.2245 87.2729 45.2535 87.4359C45.2825 87.599 45.2753 87.7843 45.239 87.9918C45.2027 88.1771 45.1373 88.355 45.0502 88.5106C44.9631 88.6663 44.8397 88.7997 44.6944 88.9035C44.5492 89.0072 44.375 89.0813 44.179 89.1184C43.9829 89.1555 43.7579 89.1481 43.511 89.0962C43.2859 89.0517 43.0899 88.985 42.9302 88.8961C42.7705 88.8071 42.6325 88.7033 42.5164 88.5922L42.8213 88.1104C42.9302 88.2142 43.0464 88.3031 43.1625 88.3772C43.2642 88.4439 43.4094 88.4958 43.5764 88.5329Z" fill="#151253"/>
<path d="M48.8691 84.5898L48.811 85.1605L47.7002 85.0345L47.2065 89.5705L46.5603 89.4963L47.054 84.9604L45.9432 84.8344L46.0013 84.2637L48.8691 84.5898Z" fill="#151253"/>
<path d="M50.6551 84.6269C50.764 84.9975 50.8729 85.3755 50.9745 85.7535C51.0762 86.1315 51.1851 86.5318 51.2795 86.9468C51.3811 87.3619 51.4828 87.8066 51.5772 88.2735C51.6788 88.7404 51.7732 89.2444 51.8748 89.7855L51.2214 89.7707C51.1924 89.5483 51.1561 89.326 51.1198 89.111C51.0835 88.8961 51.0472 88.6737 51.0109 88.4588L49.4208 88.4217C49.37 88.6367 49.3192 88.8516 49.2756 89.074C49.2321 89.2889 49.1885 89.5113 49.145 89.7336L48.5133 89.7188C48.6295 89.1851 48.7529 88.6811 48.8691 88.2216C48.9852 87.7621 49.1086 87.3248 49.2321 86.9098C49.3482 86.4947 49.4717 86.1019 49.5951 85.7313C49.7185 85.3533 49.8419 84.9827 49.9654 84.6121L50.6551 84.6269ZM50.2848 85.3755C50.1614 85.7832 50.038 86.1982 49.9145 86.6059C49.7911 87.0209 49.675 87.436 49.566 87.8733L50.8802 87.9029C50.793 87.4656 50.6987 87.0358 50.597 86.6207C50.4954 86.1982 50.3937 85.7832 50.2848 85.3755Z" fill="#151253"/>
<path d="M53.5447 89.2148C53.8061 89.1926 54.0021 89.1036 54.1328 88.948C54.2635 88.7924 54.3216 88.5848 54.2998 88.3328C54.2925 88.1994 54.2635 88.0808 54.2127 87.9845C54.1618 87.8807 54.0965 87.7918 54.0239 87.7177C53.944 87.6361 53.8642 87.5694 53.7625 87.5101C53.6681 87.4508 53.5665 87.3841 53.4648 87.3248C53.3487 87.2581 53.2253 87.1766 53.1018 87.1025C52.9784 87.021 52.855 86.9246 52.7461 86.8208C52.6372 86.7097 52.55 86.5763 52.4702 86.428C52.3976 86.2724 52.3468 86.0945 52.3322 85.8796C52.3177 85.672 52.3395 85.4793 52.3976 85.3088C52.4557 85.1384 52.5428 84.9827 52.6589 84.8567C52.7751 84.7307 52.9131 84.627 53.08 84.5454C53.247 84.4713 53.4285 84.4194 53.6246 84.4046C53.8206 84.3898 53.9948 84.4046 54.1691 84.4343C54.3361 84.4713 54.4813 84.5232 54.5974 84.5825L54.4305 85.1236C54.3216 85.0643 54.2127 85.0198 54.0892 84.9901C53.9658 84.9605 53.8424 84.9531 53.7117 84.9605C53.4721 84.9753 53.2906 85.0568 53.1599 85.1977C53.0292 85.3385 52.9711 85.5386 52.9857 85.7832C52.9929 85.924 53.0292 86.0426 53.08 86.139C53.1309 86.2353 53.2035 86.3317 53.2833 86.4058C53.3632 86.4873 53.4576 86.554 53.5592 86.6133C53.6609 86.6726 53.7698 86.7393 53.8932 86.806C54.0094 86.8727 54.1328 86.9468 54.249 87.021C54.3724 87.1025 54.4813 87.1988 54.5829 87.3026C54.6846 87.4064 54.7717 87.5398 54.8443 87.688C54.9169 87.8362 54.9605 88.0215 54.975 88.2291C54.9895 88.4218 54.975 88.6071 54.9314 88.7849C54.8879 88.9628 54.808 89.1185 54.6918 89.2593C54.5757 89.4001 54.4305 89.5113 54.249 89.6076C54.0674 89.704 53.8569 89.7559 53.6028 89.7707C53.3705 89.7855 53.1672 89.7781 52.9857 89.7336C52.8042 89.6892 52.6517 89.6299 52.5065 89.5558L52.6735 89.0073C52.8042 89.074 52.9421 89.1333 53.0728 89.1629C53.218 89.2148 53.3705 89.2296 53.5447 89.2148Z" fill="#151253"/>
<path d="M60.1589 85.9759C60.2605 86.4428 60.2968 86.8505 60.2751 87.1988C60.246 87.5472 60.1662 87.8436 60.0282 88.0882C59.8903 88.3328 59.7015 88.5255 59.4692 88.6812C59.2296 88.8294 58.9537 88.9406 58.6342 89.0147C58.3148 89.0888 57.9663 89.1184 57.5888 89.1184L56.5287 84.2564C56.703 84.1748 56.87 84.1081 57.0297 84.0414C57.1967 83.9821 57.3564 83.9302 57.5089 83.8932C57.8283 83.8191 58.126 83.8042 58.4092 83.8339C58.6851 83.8635 58.9392 83.9673 59.1642 84.123C59.3893 84.286 59.5853 84.5158 59.7523 84.8197C59.9266 85.1235 60.0573 85.5089 60.1589 85.9759ZM59.4837 86.1315C59.4038 85.7758 59.3167 85.4793 59.2078 85.2347C59.0989 84.9975 58.9755 84.8122 58.8303 84.6714C58.6851 84.538 58.5181 84.4565 58.3293 84.4194C58.1405 84.3824 57.9155 84.3972 57.6686 84.4565C57.6033 84.4713 57.5379 84.4861 57.4726 84.5084C57.4072 84.5306 57.3419 84.5528 57.2693 84.5751L58.1188 88.481C58.1914 88.4736 58.264 88.4662 58.3293 88.4588C58.3946 88.4514 58.46 88.4366 58.5253 88.4217C58.7794 88.3625 58.9827 88.2809 59.1425 88.1697C59.3022 88.0586 59.4183 87.9103 59.4982 87.7325C59.5781 87.5472 59.6144 87.3322 59.6071 87.0654C59.5999 86.806 59.5636 86.4947 59.4837 86.1315Z" fill="#151253"/>
<path d="M61.9376 88.0956L60.3113 83.2335L62.4458 82.4924L62.6273 83.0334L61.1099 83.5597L61.6109 85.0642L62.9831 84.5899L63.1573 85.1161L61.7851 85.5979L62.3659 87.347L63.9923 86.7763L64.1738 87.3174L61.9376 88.0956Z" fill="#151253"/>
<path d="M65.7856 80.921C66.0543 81.1952 66.3229 81.4768 66.5915 81.7585C66.8602 82.0401 67.1361 82.344 67.4192 82.6627C67.7024 82.9814 67.9928 83.3224 68.2977 83.6855C68.6026 84.0487 68.9221 84.4415 69.2633 84.8714L68.6825 85.1753C68.5518 84.9974 68.4139 84.8195 68.2832 84.6416C68.1525 84.4638 68.0146 84.2933 67.8839 84.1154L66.4681 84.8492C66.5189 85.0641 66.577 85.279 66.6424 85.494C66.7077 85.7089 66.7658 85.9165 66.8311 86.1388L66.2648 86.4353C66.1196 85.909 65.9962 85.4125 65.8873 84.9455C65.7784 84.4786 65.684 84.0339 65.5969 83.6188C65.5098 83.2038 65.4299 82.7961 65.3646 82.4033C65.2992 82.0105 65.2339 81.6251 65.1758 81.2397L65.7856 80.921ZM65.8074 81.7659C65.8873 82.1884 65.9672 82.6108 66.0543 83.0259C66.1414 83.4409 66.2358 83.8782 66.3374 84.3081L67.5136 83.6929C67.2377 83.352 66.9546 83.0185 66.6714 82.6998C66.381 82.3885 66.0906 82.0772 65.8074 81.7659Z" fill="#151253"/>
<path d="M67.4265 80.091C67.666 79.8316 67.9202 79.6092 68.196 79.4313C68.4066 79.2905 68.6171 79.1868 68.8204 79.1275C69.0237 79.0682 69.227 79.0459 69.423 79.0756C69.6191 79.1052 69.8006 79.1793 69.9821 79.3127C70.1636 79.4387 70.3233 79.6314 70.483 79.876C70.6428 80.128 70.7444 80.3578 70.788 80.5802C70.8315 80.8025 70.8243 81.01 70.7662 81.2027C70.7081 81.3954 70.6065 81.5733 70.4613 81.7438C70.3161 81.9068 70.1345 82.0625 69.924 82.2107L69.6699 82.3812L70.6863 83.9821L70.1418 84.3453L67.4265 80.091ZM69.3432 81.8846L69.561 81.7364C69.6989 81.6474 69.8151 81.5437 69.9022 81.4399C69.9966 81.3361 70.0547 81.225 70.091 81.099C70.12 80.9804 70.1273 80.847 70.091 80.7061C70.0619 80.5653 69.9893 80.4171 69.8877 80.2466C69.7788 80.0836 69.6699 79.9576 69.561 79.8686C69.4448 79.7797 69.3359 79.7278 69.2197 79.7056C69.1036 79.6833 68.9874 79.6907 68.8713 79.7278C68.7478 79.7649 68.6317 79.8242 68.5082 79.9057C68.3993 79.9724 68.3122 80.0465 68.2251 80.1206L69.3432 81.8846Z" fill="#151253"/>
<path d="M74.6504 80.2985L74.9989 80.7432L73.2419 82.1662L70.1127 78.1417L70.621 77.7266L73.4016 81.2991L74.6504 80.2985Z" fill="#151253"/>
<path d="M72.3126 76.2961L72.7918 75.844L76.1896 79.6314L75.7104 80.0835L72.3126 76.2961Z" fill="#151253"/>
<path d="M78.3968 77.5116C77.9902 77.9489 77.5255 78.1342 76.9883 78.0601C76.451 77.986 75.8484 77.6302 75.1732 76.9854C74.832 76.6593 74.5706 76.348 74.3963 76.0515C74.2221 75.7551 74.1132 75.4808 74.0769 75.2214C74.0406 74.962 74.0624 74.7174 74.1422 74.4951C74.2294 74.2727 74.3528 74.0652 74.5343 73.8725C74.6795 73.7168 74.8392 73.5834 74.999 73.4871C75.1659 73.3907 75.3184 73.324 75.4563 73.2944L75.7177 73.8206C75.5798 73.8503 75.4491 73.9021 75.3257 73.9688C75.2022 74.0355 75.0788 74.1319 74.9554 74.2653C74.694 74.5544 74.6142 74.8731 74.7303 75.2288C74.8465 75.5846 75.1514 75.9996 75.6451 76.4666C76.1461 76.9409 76.589 77.2374 76.981 77.3634C77.3731 77.482 77.7143 77.3856 77.9975 77.0818C78.1354 76.9335 78.2225 76.8001 78.2733 76.6741C78.3242 76.5481 78.3605 76.4147 78.3823 76.2739L78.8832 76.4962C78.8687 76.6371 78.8251 76.8001 78.7453 76.978C78.6799 77.1559 78.5565 77.3338 78.3968 77.5116Z" fill="#151253"/>
<path d="M76.7269 71.3154C77.0899 71.4414 77.4457 71.5748 77.8159 71.7082C78.1789 71.8417 78.5565 71.9899 78.9485 72.153C79.3406 72.316 79.7472 72.4865 80.1755 72.6792C80.6039 72.8719 81.0613 73.0794 81.5477 73.3166L81.1557 73.8502C80.9596 73.7465 80.7636 73.6501 80.5676 73.5464C80.3716 73.45 80.1755 73.3536 79.9795 73.2573L79.0284 74.5543C79.1663 74.7248 79.3116 74.8879 79.4568 75.0509C79.602 75.214 79.7544 75.377 79.9069 75.5401L79.5294 76.0589C79.1736 75.6513 78.8469 75.2585 78.5492 74.8879C78.2516 74.5173 77.9757 74.1615 77.7143 73.828C77.4529 73.4871 77.2133 73.1609 76.9883 72.8422C76.7632 72.5235 76.5381 72.2048 76.313 71.8861L76.7269 71.3154ZM77.1044 72.064C77.3585 72.405 77.6126 72.7459 77.8668 73.0868C78.1209 73.4278 78.3895 73.7687 78.6726 74.1171L79.464 73.0424C79.0647 72.8571 78.6726 72.6866 78.2806 72.531C77.8885 72.3753 77.4965 72.2122 77.1044 72.064Z" fill="#151253"/>
<path d="M78.905 67.921L79.3769 68.2248L78.7888 69.1958L82.5932 71.5972L82.252 72.1605L78.4476 69.7591L77.8595 70.73L77.3876 70.4261L78.905 67.921Z" fill="#151253"/>
<path d="M79.1373 67.4243L79.4423 66.8314L83.9001 69.2105L83.5952 69.8035L79.1373 67.4243Z" fill="#151253"/>
<path d="M84.8657 67.1279C84.4881 67.0909 84.1106 67.0464 83.7258 67.0019C83.341 66.9575 82.9417 66.9056 82.5206 66.8463C82.1068 66.787 81.6639 66.7129 81.2065 66.6313C80.7491 66.5498 80.2554 66.4535 79.7254 66.3423L79.994 65.6975C80.3643 65.7864 80.7346 65.8679 81.1121 65.9495C81.4896 66.0236 81.8599 66.0977 82.2302 66.157C82.6005 66.2163 82.9562 66.2756 83.3047 66.3275C83.6532 66.3793 83.9872 66.4238 84.2994 66.4683C84.0525 66.2682 83.7911 66.0532 83.508 65.8309C83.2321 65.6085 82.9417 65.3862 82.6368 65.1564C82.3391 64.9266 82.0269 64.7043 81.7147 64.4819C81.4025 64.2596 81.083 64.0446 80.7636 63.8371L81.025 63.2145C81.4751 63.5258 81.8817 63.8223 82.2592 64.1039C82.6368 64.3856 82.9853 64.6598 83.3192 64.9192C83.6532 65.1786 83.9654 65.4455 84.2631 65.69C84.5607 65.942 84.8584 66.194 85.1488 66.4386L84.8657 67.1279Z" fill="#151253"/>
<path d="M84.5172 60.272C84.8947 60.3832 85.2287 60.524 85.5118 60.6871C85.8022 60.8502 86.0346 61.0354 86.2161 61.243C86.3976 61.4505 86.5137 61.6877 86.5718 61.9471C86.6299 62.2065 86.6154 62.4807 86.5283 62.7772C86.4411 63.0737 86.3104 63.3183 86.1217 63.5036C85.9402 63.6888 85.7151 63.8148 85.4537 63.8964C85.1924 63.9779 84.8947 64.0001 84.568 63.9779C84.2413 63.9557 83.8855 63.889 83.508 63.7778C83.1304 63.6666 82.7965 63.5258 82.506 63.3627C82.2156 63.1997 81.9833 63.007 81.8018 62.7994C81.6203 62.5845 81.5041 62.3547 81.446 62.0953C81.388 61.8359 81.4025 61.5617 81.4896 61.2652C81.5767 60.9687 81.7147 60.7242 81.8962 60.5389C82.085 60.3536 82.31 60.2276 82.5714 60.146C82.8328 60.0645 83.1304 60.0423 83.4644 60.0645C83.7911 60.0868 84.1469 60.1535 84.5172 60.272ZM84.3211 60.9539C84.0307 60.865 83.7548 60.8057 83.5007 60.7686C83.2466 60.7316 83.0215 60.7316 82.8255 60.7686C82.6295 60.7983 82.4625 60.8724 82.3245 60.9762C82.1866 61.0799 82.0922 61.2282 82.0341 61.4283C81.976 61.621 81.976 61.7989 82.0341 61.9693C82.0922 62.1324 82.1939 62.288 82.3463 62.4214C82.4988 62.5623 82.6876 62.6883 82.9126 62.7994C83.1377 62.9106 83.4063 63.0144 83.6967 63.1033C83.9871 63.1923 84.263 63.2516 84.5172 63.2812C84.7713 63.3108 84.9963 63.3108 85.1924 63.2812C85.3884 63.2516 85.5554 63.1774 85.6861 63.0737C85.8167 62.9699 85.9184 62.8143 85.9692 62.6216C86.0273 62.4289 86.0273 62.251 85.9692 62.0879C85.9111 61.9249 85.8095 61.7766 85.6643 61.6358C85.5191 61.5024 85.3303 61.3764 85.098 61.2652C84.8802 61.1392 84.6188 61.0354 84.3211 60.9539Z" fill="#151253"/>
<path d="M80.2989 55.6397C78.2079 55.9436 76.4001 54.2612 76.4001 52.1118C76.4001 52.0969 76.4001 52.0821 76.4001 52.0673C76.4001 37.7479 65.0305 26.1411 51.0036 26.1411C36.9767 26.1411 25.607 37.7479 25.607 52.0673C25.607 52.0821 25.607 52.0969 25.607 52.1118C25.607 54.2612 23.7992 55.9436 21.7083 55.6397L6.20752 53.4014C6.89725 78.0528 26.6816 97.8272 51.0036 97.8272C75.3256 97.8272 95.1027 78.0528 95.7997 53.4014L80.2989 55.6397ZM51.0036 75.8737C38.1238 75.8737 27.6835 65.2157 27.6835 52.0673C27.6835 38.9189 38.1238 28.2609 51.0036 28.2609C63.8834 28.2609 74.3237 38.9189 74.3237 52.0673C74.3237 65.2157 63.8834 75.8737 51.0036 75.8737Z" stroke="#981424" stroke-width="0.676205" stroke-miterlimit="10"/>
<path d="M58.6925 57.0034L59.0627 47.0643C59.0627 46.9383 59.0119 46.8272 58.9321 46.7456C58.8522 46.6641 58.7433 46.6122 58.6199 46.6122C57.342 46.6122 56.2893 47.3237 56.2022 48.9321L56.1223 50.2514L55.9335 53.5199C55.9335 53.5792 55.9045 53.6311 55.8609 53.6682C55.8174 53.7052 55.7593 53.72 55.7012 53.7052C55.556 53.6756 52.1437 53.0011 49.392 57.1146C49.3557 57.1665 49.2976 57.1961 49.2395 57.1961C49.2032 57.1961 49.1669 57.1887 49.1379 57.1665C49.0508 57.1072 49.0435 56.996 49.0871 56.8997C51.0837 52.6972 54.4815 52.6231 55.3382 52.7195L55.4834 50.0216V41.5278C55.4834 40.7495 54.8663 40.1195 54.104 40.1195C53.3416 40.1195 52.7245 40.7495 52.7245 41.5278V49.1618C52.5503 49.1322 52.3687 49.1025 52.1872 49.0803V40.0454C52.1872 39.2672 51.5701 38.6372 50.8078 38.6372C50.0454 38.6372 49.4283 39.2672 49.4283 40.0454V49.0358C49.2613 49.0507 49.1016 49.0729 48.9346 49.0951V41.5278C48.9346 40.7495 48.3175 40.1195 47.5552 40.1195C46.7928 40.1195 46.1757 40.7495 46.1757 41.5278V49.8067C46.0015 49.8808 45.8272 49.9549 45.6602 50.0364V44.5666C45.6602 43.7883 45.0431 43.1584 44.2808 43.1584C43.5184 43.1584 42.9013 43.7883 42.9013 44.5666V50.5034V57.2703C42.9013 61.3763 46.1612 64.7042 50.1834 64.7042C50.4956 64.7042 50.8078 64.6746 51.1054 64.6301V64.7042C55.3092 64.7116 58.6925 61.2578 58.6925 57.0034Z" fill="#151253"/>
<path d="M50.9964 30.5066C39.3363 30.5066 29.8834 40.1566 29.8834 52.0599C29.8834 63.9631 39.3363 73.6131 50.9964 73.6131C62.6564 73.6131 72.1093 63.9631 72.1093 52.0599C72.1093 40.1566 62.6637 30.5066 50.9964 30.5066ZM50.9964 35.2575C54.6556 35.2575 58.0316 36.4804 60.7687 38.5409L37.7463 62.036C35.728 59.2492 34.53 55.7954 34.53 52.0599C34.5373 42.7804 41.9065 35.2575 50.9964 35.2575ZM50.9964 68.8696C46.4369 68.8696 42.3058 66.9722 39.3291 63.9186L62.6129 40.1492C65.6114 43.1954 67.4627 47.4053 67.4627 52.0599C67.4627 61.3467 60.0935 68.8696 50.9964 68.8696Z" fill="#981424"/>
</g>
<defs>
<clipPath id="clip0_138_714">
<rect width="102" height="102" fill="white"/>
</clipPath>
</defs>
</svg>
